<?xml version="1.0" encoding="utf-8"?>
<!-- Generator: Adobe Illustrator 19.0.0, SVG Export Plug-In . SVG Version: 6.00 Build 0)  -->
<svg version="1.1" id="图层_1" xmlns="http://www.w3.org/2000/svg" xmlns:xlink="http://www.w3.org/1999/xlink" x="0px" y="0px"
	 viewBox="33 -11 80 36" style="enable-background:new 33 -11 80 36;" xml:space="preserve">
<style type="text/css">
	.st0{fill:#009DDC;}
	.st1{fill:#E6E6E6;}
	.st2{fill:#FFFFFF;}
	.st3{fill:#666666;}
</style>
<g id="XMLID_2_">
	<g id="XMLID_9_">
		<path id="XMLID_7_" class="st0" d="M86.6,18.2l-5.4,5.3c-0.2,0.2-0.4,0.2-0.6,0l-2.3-2.3c-0.2-0.2-0.2-0.4,0-0.6l5.4-5.3
			c0.2-0.2,0.4-0.2,0.6,0l2.3,2.3C86.6,17.8,86.6,18.1,86.6,18.2z"/>
		
			<rect id="XMLID_8_" x="84.3" y="14.7" transform="matrix(-0.7092 0.705 -0.705 -0.7092 158.2574 -33.1086)" class="st0" width="3.3" height="2.7"/>
	</g>
	<circle id="XMLID_3_" class="st1" cx="96.6" cy="4.5" r="14.2"/>
	<circle id="XMLID_5_" class="st0" cx="96.6" cy="4.5" r="12"/>
	<g id="XMLID_15_">
		<path id="XMLID_6_" class="st2" d="M93.1,11.7h-2.4c-0.2,0-0.4-0.2-0.4-0.4V7.2c0-0.2,0.2-0.4,0.4-0.4h2.4c0.2,0,0.4,0.2,0.4,0.4
			v4.1C93.4,11.5,93.4,11.7,93.1,11.7z"/>
		<path id="XMLID_10_" class="st2" d="M97.9,11.7h-2.4c-0.2,0-0.4-0.2-0.4-0.4V5.5c0-0.2,0.2-0.4,0.4-0.4h2.4c0.2,0,0.4,0.2,0.4,0.4
			v5.8C98.3,11.5,98.1,11.7,97.9,11.7z"/>
		<path id="XMLID_11_" class="st2" d="M102.6,11.7h-2.4c-0.2,0-0.4-0.2-0.4-0.4V3.2c0-0.2,0.2-0.4,0.4-0.4h2.4
			c0.2,0,0.4,0.2,0.4,0.4v8.1C102.9,11.5,102.7,11.7,102.6,11.7z"/>
		<polygon id="XMLID_13_" class="st2" points="91.4,0.9 94.1,-1.3 96.9,0.9 100.3,-1.8 101.3,-0.1 96.9,3.3 94.4,1.3 92.7,2.5 		"/>
		<circle id="XMLID_12_" class="st2" cx="90.9" cy="2.6" r="1.9"/>
		<circle id="XMLID_14_" class="st2" cx="101.6" cy="-1.1" r="1.9"/>
	</g>
</g>
<g id="XMLID_4_">
	<g id="XMLID_26_">
		<path id="XMLID_82_" class="st3" d="M37,16.7c0,0-0.1,0.1-0.1,0.2c-0.1,0.1-0.1,0.2-0.2,0.3c-0.1,0.1-0.1,0.2-0.2,0.3
			c-0.1,0.1-0.1,0.2-0.2,0.3c-0.1,0.1-0.1,0.2-0.1,0.3c0,0.1-0.1,0.2-0.1,0.2c0,0.1,0.1,0.2,0.2,0.2c0.1,0,0.2,0,0.3-0.1
			s0.2-0.1,0.3-0.2s0.2-0.2,0.2-0.3c0.1-0.1,0.1-0.2,0.2-0.3c0.1-0.1,0.1-0.2,0.1-0.3c0-0.1,0-0.1,0.1-0.2V17v-0.1
			c0-0.1,0-0.2,0.1-0.2c0.1-0.1,0.1-0.1,0.2-0.1c0.1,0,0.2,0,0.3,0.1s0.1,0.2,0.1,0.3c0,0.1,0,0.1,0,0.1v0.1
			c0.1,0.1,0.2,0.1,0.4,0.1c0.1,0,0.1,0,0.2,0c0,0,0.1,0,0.1-0.1l0.1-0.1l0.1-0.1l0,0c0,0.1-0.1,0.1-0.2,0.2
			c-0.1,0.1-0.2,0.1-0.3,0.1s-0.2,0-0.2,0c-0.1,0-0.1-0.1-0.2-0.1c-0.1,0.2-0.1,0.3-0.3,0.5c-0.1,0.1-0.3,0.3-0.4,0.4
			c-0.2,0.1-0.3,0.2-0.5,0.3c-0.2,0.1-0.4,0.1-0.5,0.1c-0.2,0-0.4,0-0.5-0.1s-0.2-0.2-0.2-0.4v-0.1v-0.1l0,0
			c-0.3,0.1-0.3,0.2-0.3,0.3c-0.1,0.1-0.1,0.2-0.2,0.2c-0.1,0.1-0.2,0.1-0.3,0.2c-0.1,0-0.2,0.1-0.3,0.1s-0.3,0-0.3-0.1
			c-0.1-0.1-0.1-0.2-0.1-0.3c0-0.1,0-0.2,0-0.2s0.1-0.2,0.1-0.3c0.1-0.1,0.1-0.2,0.2-0.4c0.1-0.1,0.2-0.3,0.3-0.5h0.7
			c0,0.1-0.1,0.1-0.1,0.2c-0.1,0.1-0.1,0.2-0.2,0.3c-0.1,0.1-0.1,0.2-0.2,0.3s-0.1,0.2-0.2,0.3c-0.1,0.1-0.1,0.2-0.1,0.3
			c0,0.1-0.1,0.2-0.1,0.2c0,0.1,0,0.1,0.1,0.1s0.2,0,0.3-0.1s0.2-0.2,0.3-0.4c0.1-0.1,0.2-0.2,0.2-0.3c0.1-0.1,0.2-0.2,0.2-0.3
			c0.1-0.1,0.1-0.2,0.2-0.3c0.1-0.1,0.1-0.2,0.1-0.2L37,16.7z"/>
		<path id="XMLID_80_" class="st3" d="M41,16.7c0,0-0.1,0.1-0.1,0.2c-0.1,0.1-0.1,0.2-0.2,0.3c-0.1,0.1-0.1,0.2-0.2,0.3
			c-0.1,0.1-0.1,0.2-0.2,0.3c-0.1,0.1-0.1,0.2-0.1,0.3c0,0.1-0.1,0.2-0.1,0.2c0,0.1,0.1,0.2,0.2,0.2c0.1,0,0.2,0,0.3-0.1
			s0.2-0.1,0.3-0.2s0.2-0.2,0.2-0.3c0.1-0.1,0.1-0.2,0.2-0.3c0.1-0.1,0.1-0.2,0.1-0.3c0-0.1,0-0.1,0.1-0.2V17v-0.1
			c0-0.1,0-0.2,0.1-0.2c0.1-0.1,0.1-0.1,0.2-0.1c0.1,0,0.2,0,0.3,0.1s0.1,0.2,0.1,0.3c0,0.1,0,0.1,0,0.1v0.1
			c0.1,0.1,0.2,0.1,0.4,0.1c0.1,0,0.1,0,0.2,0c0,0,0.1,0,0.1-0.1l0.1-0.1l0.1-0.1l0,0c0,0.1-0.1,0.1-0.2,0.2
			c-0.1,0.1-0.2,0.1-0.3,0.1s-0.2,0-0.2,0c-0.1,0-0.1-0.1-0.2-0.1c-0.1,0.2-0.1,0.3-0.3,0.5c-0.1,0.1-0.3,0.3-0.4,0.4
			c-0.2,0.1-0.3,0.2-0.5,0.3c-0.2,0.1-0.4,0.1-0.5,0.1c-0.2,0-0.4,0-0.5-0.1s-0.2-0.2-0.2-0.4v-0.1v-0.1l0,0
			c-0.1,0.1-0.1,0.1-0.2,0.2c-0.1,0.1-0.1,0.2-0.2,0.2c-0.1,0.1-0.2,0.1-0.3,0.2c-0.1,0-0.2,0.1-0.3,0.1s-0.3,0-0.3-0.1
			c-0.1-0.1-0.1-0.2-0.1-0.3c0-0.1,0-0.2,0-0.2s0.1-0.2,0.1-0.3c0.1-0.1,0.1-0.2,0.2-0.4c0.1-0.1,0.2-0.3,0.3-0.5h0.7
			c0,0.1-0.1,0.1-0.1,0.2c-0.1,0.1-0.1,0.2-0.2,0.3s-0.1,0.2-0.2,0.3s-0.1,0.2-0.2,0.3c-0.1,0.1-0.1,0.2-0.1,0.3
			c0,0.1-0.1,0.2-0.1,0.2c0,0.1,0,0.1,0.1,0.1s0.2,0,0.3-0.1s0.2-0.2,0.3-0.4c0.1-0.1,0.2-0.2,0.2-0.3c0.1-0.1,0.2-0.2,0.2-0.3
			c0.1-0.1,0.1-0.2,0.2-0.3c0.1-0.1,0.1-0.2,0.1-0.2L41,16.7z"/>
		<path id="XMLID_78_" class="st3" d="M45,16.7c0,0-0.1,0.1-0.1,0.2c-0.1,0.1-0.1,0.2-0.2,0.3c-0.1,0.1-0.1,0.2-0.2,0.3
			c-0.1,0.1-0.1,0.2-0.2,0.3c-0.1,0.1-0.1,0.2-0.1,0.3c0,0.1-0.1,0.2-0.1,0.2c0,0.1,0.1,0.2,0.2,0.2c0.1,0,0.2,0,0.3-0.1
			s0.2-0.1,0.3-0.2s0.2-0.2,0.2-0.3c0.1-0.1,0.1-0.2,0.2-0.3c0.1-0.1,0.1-0.2,0.1-0.3c0-0.1,0-0.1,0.1-0.2V17v-0.1
			c0-0.1,0-0.2,0.1-0.2c0.1-0.1,0.1-0.1,0.2-0.1c0.1,0,0.2,0,0.3,0.1s0.1,0.2,0.1,0.3c0,0.1,0,0.1,0,0.1v0.1
			c0.1,0.1,0.2,0.1,0.4,0.1c0.1,0,0.1,0,0.2,0c0,0,0.1,0,0.1-0.1l0.1-0.1l0.1-0.1l0,0c0,0.1-0.1,0.1-0.2,0.2
			c-0.1,0.1-0.2,0.1-0.3,0.1s-0.2,0-0.2,0c-0.1,0-0.1-0.1-0.2-0.1c-0.1,0.2-0.1,0.3-0.3,0.5c-0.1,0.1-0.3,0.3-0.4,0.4
			c-0.2,0.1-0.3,0.2-0.5,0.3c-0.2,0.1-0.4,0.1-0.5,0.1c-0.2,0-0.4,0-0.5-0.1s-0.2-0.2-0.2-0.4v-0.1v-0.1l0,0
			c-0.1,0.1-0.1,0.1-0.2,0.2c-0.1,0.1-0.1,0.2-0.2,0.2c-0.1,0.1-0.2,0.1-0.3,0.2c-0.1,0-0.2,0.1-0.3,0.1s-0.3,0-0.3-0.1
			c-0.1-0.1-0.1-0.2-0.1-0.3c0-0.1,0-0.2,0-0.2s0.1-0.2,0.1-0.3c0.1-0.1,0.1-0.2,0.2-0.4c0.1-0.1,0.2-0.3,0.3-0.5h0.7
			c0,0.1-0.1,0.1-0.1,0.2c-0.1,0.1-0.1,0.2-0.2,0.3s-0.1,0.2-0.2,0.3s-0.1,0.2-0.2,0.3c-0.1,0.1-0.1,0.2-0.1,0.3
			c0,0.1-0.1,0.2-0.1,0.2c0,0.1,0,0.1,0.1,0.1s0.2,0,0.3-0.1s0.2-0.2,0.3-0.4c0.1-0.1,0.2-0.2,0.2-0.3c0.1-0.1,0.2-0.2,0.2-0.3
			c0.1-0.1,0.1-0.2,0.2-0.3c0.1-0.1,0.1-0.2,0.1-0.2L45,16.7z"/>
		<path id="XMLID_76_" class="st3" d="M46.7,17.8c0.1,0,0.2,0,0.3,0.1s0.1,0.2,0.1,0.3c0,0.1,0,0.2-0.1,0.3
			c-0.1,0.1-0.2,0.1-0.3,0.1s-0.2,0-0.3-0.1s-0.1-0.2-0.1-0.3c0-0.1,0-0.2,0.1-0.3C46.5,17.8,46.7,17.8,46.7,17.8z"/>
		<path id="XMLID_74_" class="st3" d="M48.7,18.5c0,0,0.1-0.1,0.1-0.2s0.1-0.2,0.2-0.3c0.1-0.1,0.1-0.2,0.2-0.3
			c0.1-0.1,0.1-0.2,0.2-0.3c0.1-0.1,0.1-0.2,0.2-0.3c0-0.1,0.1-0.1,0.1-0.2s0-0.1-0.1-0.1s-0.1,0-0.2,0.1c-0.1,0.1-0.2,0.1-0.3,0.2
			s-0.2,0.2-0.3,0.3c-0.1,0.1-0.2,0.2-0.3,0.4c-0.1,0.1-0.2,0.2-0.3,0.4c-0.1,0.1-0.1,0.2-0.2,0.3h-0.7c0.2-0.3,0.3-0.6,0.5-0.9
			s0.4-0.6,0.5-0.9H49l-0.7,1l0,0c0.1-0.1,0.2-0.2,0.3-0.3c0.1-0.1,0.2-0.2,0.3-0.3c0.1-0.1,0.2-0.2,0.4-0.3
			c0.1-0.1,0.3-0.1,0.4-0.1c0.1,0,0.2,0,0.3,0.1s0.1,0.2,0.1,0.3c0,0.1,0,0.1,0,0.2s0,0.1-0.1,0.2l0,0c0.1-0.1,0.1-0.1,0.2-0.2
			s0.2-0.2,0.3-0.2c0.1-0.1,0.2-0.1,0.3-0.2c0.1,0,0.2-0.1,0.3-0.1s0.2,0,0.3,0.1s0.1,0.2,0.1,0.3c0,0.1,0,0.2-0.1,0.4
			c-0.1,0.1-0.2,0.2-0.2,0.4c-0.1,0.1-0.2,0.2-0.2,0.3c-0.1,0.1-0.1,0.2-0.1,0.3v0.1H51c0.1,0,0.1,0,0.2-0.1c0.1,0,0.2-0.1,0.2-0.2
			c0.1-0.1,0.2-0.2,0.3-0.3c0.1-0.1,0.2-0.2,0.2-0.3c0.1-0.1,0.1-0.2,0.2-0.3c0.1-0.1,0.1-0.1,0.2-0.2l0,0c-0.1,0.1-0.2,0.2-0.3,0.4
			c-0.1,0.2-0.3,0.3-0.4,0.5c-0.1,0.1-0.3,0.2-0.4,0.3c-0.1,0.1-0.3,0.1-0.5,0.1c-0.1,0-0.1,0-0.2,0c-0.1,0-0.1-0.1-0.1-0.1
			l-0.1-0.1v-0.1c0-0.1,0-0.2,0.1-0.4c0.1-0.1,0.1-0.2,0.2-0.3c0.1-0.1,0.2-0.2,0.2-0.3c0.1-0.1,0.1-0.2,0.1-0.2V17h-0.1
			c-0.1,0-0.1,0-0.2,0.1c-0.1,0.1-0.2,0.1-0.3,0.2s-0.2,0.2-0.3,0.3c-0.1,0.1-0.2,0.2-0.3,0.4c-0.1,0.1-0.2,0.2-0.2,0.3
			c-0.1,0.1-0.1,0.2-0.2,0.3L48.7,18.5z"/>
		<path id="XMLID_71_" class="st3" d="M55.3,17.2L55.3,17.2c-0.1,0.1-0.1,0.1-0.2,0.2c0,0-0.1,0.1-0.2,0.1c-0.1,0-0.1,0-0.2,0
			c-0.1,0-0.2,0-0.2-0.1c-0.1,0-0.1-0.1-0.2-0.2l0,0c0,0.2,0,0.3-0.1,0.5S54,18,53.9,18.1s-0.3,0.2-0.5,0.3
			c-0.2,0.1-0.4,0.1-0.6,0.1c-0.1,0-0.2,0-0.3,0s-0.2-0.1-0.3-0.1c-0.1-0.1-0.1-0.1-0.2-0.2c-0.1-0.1-0.1-0.2-0.1-0.3
			c0-0.2,0-0.4,0.1-0.5c0.1-0.2,0.2-0.3,0.4-0.4c0.1-0.1,0.3-0.2,0.5-0.2s0.4-0.1,0.5-0.1s0.3,0,0.4,0.1c0.1,0,0.2,0.1,0.2,0.1
			c0.1,0.1,0.1,0.1,0.2,0.2c0,0.1,0.1,0.1,0.1,0.2s0.1,0.1,0.2,0.1c0.1,0,0.1,0.1,0.2,0.1c0.1,0,0.2,0,0.2-0.1
			C55,17.3,55.2,17.2,55.3,17.2L55.3,17.2z M53.5,16.7c-0.1,0-0.2,0-0.3,0.1S53,16.9,53,17c-0.1,0.1-0.2,0.2-0.2,0.3
			c-0.1,0.1-0.1,0.2-0.2,0.3c-0.1,0.1-0.1,0.2-0.1,0.3s0,0.2,0,0.3c0,0.1,0,0.1,0.1,0.2c0,0,0.1,0.1,0.2,0.1c0.1,0,0.2,0,0.3-0.1
			s0.2-0.1,0.2-0.2c0.1-0.1,0.2-0.2,0.2-0.3c0.1-0.1,0.1-0.2,0.2-0.3c0.1-0.1,0.1-0.2,0.1-0.3c0-0.1,0-0.2,0-0.3
			c0-0.1,0-0.1-0.1-0.2C53.7,16.7,53.5,16.7,53.5,16.7z"/>
		<path id="XMLID_68_" class="st3" d="M58,17.2L58,17.2c-0.1,0.1-0.1,0.1-0.2,0.2c0,0-0.1,0.1-0.2,0.1c-0.1,0-0.1,0-0.2,0
			c-0.1,0-0.2,0-0.2-0.1c-0.1,0-0.1-0.1-0.2-0.2l0,0c0,0.2,0,0.3-0.1,0.5s-0.2,0.3-0.3,0.4s-0.3,0.2-0.5,0.3
			c-0.2,0.1-0.4,0.1-0.6,0.1c-0.1,0-0.2,0-0.3,0s-0.2-0.1-0.3-0.1c-0.1-0.1-0.1-0.1-0.2-0.2c-0.1-0.1-0.1-0.2-0.1-0.3
			c0-0.2,0-0.4,0.1-0.5c0.1-0.2,0.2-0.3,0.4-0.4c0.1-0.1,0.3-0.2,0.5-0.2c0.2-0.1,0.4-0.1,0.5-0.1s0.3,0,0.4,0.1
			c0.1,0,0.2,0.1,0.2,0.1c0.1,0.1,0.1,0.1,0.2,0.2c0,0.1,0.1,0.1,0.1,0.2s0.1,0.1,0.2,0.1c0.1,0,0.1,0.1,0.2,0.1
			c0.1,0,0.2,0,0.2-0.1C57.9,17.3,58,17.2,58,17.2L58,17.2z M56.3,16.7c-0.1,0-0.2,0-0.3,0.1s-0.2,0.1-0.2,0.2
			c-0.1,0.1-0.2,0.2-0.2,0.3c-0.1,0.1-0.1,0.2-0.2,0.3c-0.1,0.1-0.1,0.2-0.1,0.3c0,0.1,0,0.2,0,0.3c0,0.1,0,0.1,0.1,0.2
			c0,0,0.1,0.1,0.2,0.1c0.1,0,0.2,0,0.3-0.1s0.2-0.1,0.2-0.2c0.1-0.1,0.2-0.2,0.2-0.3c0.1-0.1,0.1-0.2,0.2-0.3
			c0.1-0.1,0.1-0.2,0.1-0.3c0-0.1,0-0.2,0-0.3c0-0.1,0-0.1-0.1-0.2S56.4,16.7,56.3,16.7z"/>
		<path id="XMLID_37_" class="st3" d="M58.9,16.7c-0.2,0.3-0.4,0.6-0.5,0.9c-0.2,0.3-0.3,0.6-0.5,0.8l0,0c0.2-0.1,0.3-0.1,0.5-0.2
			c0.1-0.1,0.3-0.2,0.4-0.3c0.1-0.1,0.3-0.2,0.4-0.3c0.1-0.1,0.2-0.2,0.4-0.4l0,0c-0.3,0.3-0.5,0.6-0.8,0.8
			c-0.3,0.2-0.6,0.4-0.9,0.5c-0.1,0.2-0.2,0.3-0.3,0.5s-0.3,0.4-0.5,0.5c-0.2,0.2-0.4,0.3-0.7,0.4s-0.6,0.2-0.9,0.2
			c-0.1,0-0.2,0-0.4,0c-0.1,0-0.2-0.1-0.4-0.1c-0.1-0.1-0.2-0.1-0.3-0.2s-0.1-0.2-0.1-0.3c0-0.1,0-0.2,0.1-0.3
			c0.1-0.1,0.1-0.1,0.2-0.2c0.1-0.1,0.2-0.1,0.3-0.1s0.2,0,0.3,0s0.2,0,0.2,0c0.1,0,0.1,0,0.1,0l0,0c0,0,0,0-0.1,0h-0.1
			c-0.2,0-0.3,0.1-0.4,0.2c-0.1,0.1-0.1,0.2-0.1,0.4c0,0.1,0,0.2,0,0.3c0,0.1,0.1,0.2,0.1,0.2c0.1,0.1,0.1,0.1,0.2,0.1
			c0.1,0,0.2,0.1,0.3,0.1c0.2,0,0.3-0.1,0.5-0.2s0.3-0.3,0.5-0.5s0.3-0.4,0.5-0.7c0.2-0.2,0.3-0.5,0.4-0.7c0.1-0.2,0.3-0.5,0.4-0.7
			c0.1-0.2,0.2-0.4,0.3-0.6L58.9,16.7z M59,15.6c0.1,0,0.2,0,0.3,0.1s0.1,0.1,0.1,0.2s0,0.2-0.1,0.2c-0.1,0.1-0.2,0.1-0.3,0.1
			s-0.2,0-0.3-0.1s-0.1-0.1-0.1-0.2s0-0.2,0.1-0.2C58.7,15.6,58.9,15.6,59,15.6z"/>
		<path id="XMLID_36_" class="st3" d="M58.5,18.5l1.1-1.8h0.7c-0.2,0.3-0.5,0.7-0.7,1l0,0c0.1-0.1,0.2-0.2,0.3-0.4
			c0.1-0.1,0.2-0.2,0.3-0.4c0.1-0.1,0.2-0.2,0.4-0.3c0.1-0.1,0.3-0.1,0.4-0.1c0.1,0,0.2,0,0.3,0.1c0.2,0.2,0.2,0.3,0.2,0.4
			s0,0.2-0.1,0.3c-0.1,0.1-0.1,0.2-0.2,0.3c-0.1,0.1-0.2,0.2-0.2,0.3c-0.1,0.1-0.1,0.2-0.1,0.3v0.1c0,0,0,0,0.1,0s0.2,0,0.3-0.1
			s0.2-0.2,0.2-0.3c0.1-0.1,0.2-0.2,0.2-0.2c0.1-0.1,0.2-0.2,0.2-0.3c0.1-0.1,0.1-0.2,0.2-0.2c0.1-0.1,0.1-0.1,0.1-0.2l0,0
			c-0.1,0.1-0.2,0.3-0.4,0.5c-0.1,0.2-0.3,0.3-0.4,0.4c-0.1,0.1-0.3,0.2-0.4,0.3c-0.1,0.1-0.3,0.1-0.4,0.1c-0.2,0-0.3,0-0.3-0.1
			c-0.1-0.1-0.1-0.2-0.1-0.3c0-0.1,0-0.2,0.1-0.3c0.1-0.1,0.1-0.2,0.2-0.3c0.1-0.1,0.2-0.2,0.2-0.3c0.1-0.1,0.1-0.2,0.1-0.2
			c0-0.1,0-0.1-0.1-0.1s-0.1,0-0.2,0.1c-0.1,0.1-0.2,0.1-0.3,0.2s-0.2,0.2-0.3,0.3c-0.1,0.1-0.2,0.2-0.3,0.4
			c-0.2,0.2-0.2,0.4-0.3,0.5s-0.1,0.2-0.2,0.3L58.5,18.5z"/>
		<path id="XMLID_34_" class="st3" d="M61.3,18.5l1.1-1.8h0.7c-0.2,0.3-0.5,0.7-0.7,1l0,0c0.1-0.1,0.2-0.2,0.3-0.4
			c0.1-0.1,0.2-0.2,0.3-0.4c0.1-0.1,0.2-0.2,0.4-0.3c0.1-0.1,0.3-0.1,0.4-0.1s0.2,0,0.3,0.1c0.1,0.1,0.1,0.2,0.1,0.3
			c0,0.1,0,0.2-0.1,0.3c-0.1,0.1-0.1,0.2-0.2,0.3c-0.1,0.1-0.2,0.2-0.2,0.3c-0.1,0.1-0.1,0.2-0.1,0.3v0.1c0,0,0,0,0.1,0
			s0.2,0,0.3-0.1c0.1-0.1,0.2-0.2,0.3-0.3c0.1-0.1,0.2-0.2,0.2-0.2c0.1-0.1,0.2-0.2,0.2-0.3c0.1-0.1,0.1-0.2,0.2-0.2
			C65,17,65,17,65,16.9l0,0c-0.1,0.1-0.2,0.3-0.4,0.5c-0.1,0.2-0.3,0.3-0.4,0.4s-0.3,0.2-0.4,0.3c-0.1,0.1-0.3,0.1-0.4,0.1
			c-0.2,0-0.3,0-0.3-0.1C63,18,63,17.9,63,17.8c0-0.1,0-0.2,0.1-0.3c0.1-0.1,0.1-0.2,0.2-0.3c0.1-0.1,0.2-0.2,0.2-0.3
			c0.1-0.1,0.1-0.2,0.1-0.2c0-0.1,0-0.1-0.1-0.1s-0.1,0-0.2,0.1c-0.1,0.1-0.2,0.1-0.3,0.2s-0.2,0.2-0.3,0.3
			c-0.1,0.1-0.2,0.2-0.3,0.4c-0.1,0.1-0.2,0.2-0.2,0.3c-0.1,0.1-0.1,0.2-0.2,0.3L61.3,18.5z"/>
		<path id="XMLID_33_" class="st3" d="M64.9,17.8c0.1,0,0.2,0,0.3,0.1s0.1,0.2,0.1,0.3c0,0.1,0,0.2-0.1,0.3
			c-0.1,0.1-0.2,0.1-0.3,0.1c-0.1,0-0.2,0-0.3-0.1c-0.1-0.1-0.1-0.2-0.1-0.3c0-0.1,0-0.2,0.1-0.3C64.7,17.8,64.9,17.8,64.9,17.8z"/>
		<path id="XMLID_31_" class="st3" d="M68.7,17.2c-0.1,0.2-0.3,0.3-0.4,0.5S68,18,67.8,18.2c-0.2,0.1-0.3,0.2-0.5,0.3
			c-0.2,0.1-0.4,0.1-0.6,0.1c-0.1,0-0.2,0-0.3,0c-0.1,0-0.2-0.1-0.2-0.1c-0.1,0-0.1-0.1-0.2-0.2c0-0.1-0.1-0.2-0.1-0.3
			c0-0.2,0.1-0.4,0.2-0.5c0.1-0.2,0.2-0.3,0.4-0.4s0.3-0.2,0.5-0.3c0.2-0.1,0.4-0.1,0.6-0.1s0.3,0,0.4,0.1s0.2,0.1,0.2,0.2
			s0,0.1,0,0.2s-0.1,0.1-0.1,0.1c-0.1,0-0.1,0.1-0.2,0.1s-0.1,0-0.2,0l0,0v-0.1c0,0,0-0.1,0-0.2s0-0.2,0-0.3s-0.1-0.1-0.1-0.1
			c-0.1,0-0.2,0-0.2,0.1c-0.1,0.1-0.2,0.2-0.2,0.3c-0.1,0.1-0.1,0.2-0.2,0.4c-0.1,0.1-0.1,0.3-0.1,0.4s0,0.3,0.1,0.3
			c0.1,0.1,0.2,0.1,0.3,0.1c0.2,0,0.3-0.1,0.5-0.2s0.3-0.2,0.5-0.4c0.1-0.1,0.2-0.2,0.3-0.4C68.6,17.3,68.6,17.2,68.7,17.2
			L68.7,17.2z"/>
		<path id="XMLID_30_" class="st3" d="M71.6,17.2C71.6,17.2,71.4,17.2,71.6,17.2c-0.1,0.1-0.1,0.1-0.2,0.2c0,0-0.1,0.1-0.2,0.1
			s-0.1,0-0.2,0s-0.2,0-0.2-0.1c-0.1,0-0.1-0.1-0.2-0.2l0,0c0,0.2,0,0.3-0.1,0.5s-0.2,0.3-0.3,0.4c-0.1,0.1-0.3,0.2-0.5,0.3
			c-0.2,0.1-0.4,0.1-0.6,0.1c-0.1,0-0.2,0-0.3,0s-0.2-0.1-0.3-0.1c-0.1-0.1-0.1-0.1-0.2-0.2s-0.1-0.2-0.1-0.3c0-0.2,0-0.4,0.1-0.5
			c0.1-0.2,0.2-0.3,0.4-0.4c0.1-0.1,0.3-0.2,0.5-0.2s0.4-0.1,0.5-0.1s0.3,0,0.4,0.1c0.1,0,0.2,0.1,0.2,0.1c0.1,0,0.2,0,0.2,0.1
			s0.1,0.1,0.1,0.2s0.1,0.1,0.2,0.1s0.1,0.1,0.2,0.1s0.2,0,0.2-0.1C71.4,17.3,71.4,17.2,71.6,17.2L71.6,17.2z M69.7,16.7
			c-0.1,0-0.2,0-0.3,0.1c-0.1,0.1-0.2,0.1-0.2,0.2c-0.1,0.1-0.2,0.2-0.2,0.3c-0.1,0.1-0.1,0.2-0.2,0.3c-0.1,0.1-0.1,0.2-0.1,0.3
			c0,0.1,0,0.2,0,0.3c0,0.1,0,0.1,0.1,0.2c0,0,0.1,0.1,0.2,0.1s0.2,0,0.3-0.1s0.2-0.1,0.2-0.2c0.1-0.1,0.2-0.2,0.2-0.3
			c0.1-0.1,0.1-0.2,0.2-0.3c0.1-0.1,0.1-0.2,0.1-0.3c0-0.1,0-0.2,0-0.3c0-0.1,0-0.1-0.1-0.2C69.9,16.7,69.9,16.7,69.7,16.7z"/>
		<path id="XMLID_28_" class="st3" d="M71.9,18.5c0,0,0.1-0.1,0.1-0.2s0.1-0.2,0.2-0.3c0.1-0.1,0.1-0.2,0.2-0.3
			c0.1-0.1,0.1-0.2,0.2-0.3c0.1-0.1,0.1-0.2,0.2-0.3c0-0.1,0.1-0.1,0.1-0.2s0-0.1-0.1-0.1s-0.1,0-0.2,0.1c-0.1,0.1-0.2,0.1-0.3,0.2
			s-0.2,0.2-0.3,0.3c-0.1,0.1-0.2,0.2-0.3,0.4c-0.1,0.1-0.2,0.2-0.3,0.4c-0.1,0.1-0.1,0.2-0.2,0.3h-0.7c0.2-0.3,0.3-0.6,0.5-0.9
			s0.4-0.6,0.5-0.9h0.7l-0.7,1l0,0c0.1-0.1,0.2-0.2,0.3-0.3c0.1-0.1,0.2-0.2,0.3-0.3s0.2-0.2,0.4-0.3c0.1-0.1,0.3-0.1,0.4-0.1
			s0.2,0,0.3,0.1c0.1,0.1,0.1,0.2,0.1,0.3c0,0.1,0,0.1,0,0.2s0,0.1-0.1,0.2l0,0c0.1-0.1,0.1-0.1,0.2-0.2s0.2-0.2,0.3-0.2
			c0.1-0.1,0.2-0.1,0.3-0.2c0.1,0,0.2-0.1,0.3-0.1c0.1,0,0.2,0,0.3,0.1c0.1,0.1,0.1,0.2,0.1,0.3c0,0.1,0,0.2-0.1,0.4
			c0,0.1-0.1,0.2-0.1,0.4c-0.1,0.1-0.2,0.2-0.2,0.3c-0.1,0.1-0.1,0.2-0.1,0.3v0.1h0.1c0.1,0,0.1,0,0.2-0.1c0.1,0,0.2-0.1,0.2-0.2
			c0.1-0.1,0.2-0.2,0.3-0.3c0.1-0.1,0.2-0.2,0.2-0.3c0.1-0.1,0.1-0.2,0.2-0.3c0.1-0.1,0.1-0.1,0.1-0.2l0,0c-0.1,0.1-0.2,0.2-0.3,0.4
			c-0.1,0.2-0.3,0.3-0.4,0.5c-0.1,0.1-0.3,0.2-0.4,0.3c-0.1,0.1-0.3,0.1-0.5,0.1c-0.1,0-0.1,0-0.2,0s-0.1-0.1-0.1-0.1l-0.1-0.1v-0.1
			c0-0.1,0-0.2,0.1-0.4c0.1-0.1,0.1-0.2,0.2-0.3c0.1-0.1,0.2-0.2,0.2-0.3c0.1-0.1,0.1-0.2,0.1-0.2V17H74c-0.1,0-0.1,0-0.2,0.1
			s-0.2,0.1-0.3,0.2s-0.2,0.2-0.3,0.3c-0.1,0.1-0.2,0.2-0.3,0.4c-0.1,0.1-0.2,0.2-0.2,0.3s-0.1,0.2-0.2,0.3L71.9,18.5z"/>
	</g>
	<g id="XMLID_16_">
		<path id="XMLID_20_" class="st3" d="M44-5.6l1.2-0.6c0.3,0.5,0.8,1.1,1.3,2h7.6V-3H37.7v7.5c-0.1,3.9-0.8,6.9-2.2,9
			c-0.3-0.4-0.7-0.9-1.1-1.4c1.3-2,1.9-4.6,1.9-7.6v-8.6h8.6C44.5-4.7,44.3-5.2,44-5.6z M48.5,10.5c0.8,0,1.4-0.1,2.1-0.1
			c-0.1-0.1-0.3-0.3-0.4-0.4l0.7-0.6c0.6,0.5,1.2,1.1,1.7,1.6l-0.7,0.6c-0.1-0.2-0.3-0.3-0.5-0.5c-0.9,0.1-2.1,0.2-3.7,0.3l-0.4-0.9
			c0.4-0.4,0.9-0.9,1.3-1.5h-2v2.1c0,0.7,0.3,1.1,1,1.1h4.5c0.7,0,1.1-0.3,1.1-0.9c0-0.3,0.1-1,0.1-2.2c0.4,0.2,0.8,0.4,1.3,0.5
			c-0.1,1.1-0.2,1.8-0.3,2.2c-0.2,1-0.9,1.5-2.2,1.5h-5c-1.2,0-1.8-0.7-1.8-2v-2c-1.1,2-3.4,3.4-6.9,4.4c-0.1-0.3-0.4-0.7-0.8-1.3
			c3.2-0.8,5.4-1.9,6.4-3.5h-3.3v0.6h-1.2V3.3H44c0.2-0.5,0.5-0.9,0.7-1.4l1.2,0.5c-0.2,0.3-0.4,0.6-0.6,0.8h6.6v5.7h-2.3
			C49.2,9.5,48.9,10,48.5,10.5z M37.9,2c1.3-0.6,2.4-1.4,3.2-2.3h-2.7v-1h3.1v-1.3h1v1.3h3v1h-2.8v0.8L43.2,0
			c0.7,0.5,1.3,0.9,1.8,1.3l-0.6,0.8c-0.6-0.5-1.2-0.9-1.6-1.2v1.9h-1.3V0.5c-0.8,1-1.7,1.8-2.7,2.3C38.5,2.6,38.2,2.3,37.9,2z
			 M40.7,5.6H45c0-0.4,0.1-0.9,0.1-1.3h-4.3L40.7,5.6L40.7,5.6z M44.7,6.6h-4.1v1.3h3.9C44.5,7.6,44.7,7.1,44.7,6.6z M54,1.7
			c-0.3,0.3-0.6,0.6-0.8,1c-1.2-0.6-2.2-1.4-3-2.4v2.4h-1.1V0.3c-0.8,0.9-1.6,1.7-2.6,2.3c-0.3-0.3-0.6-0.6-1-0.9
			c1.2-0.5,2.2-1.2,3-2h-2.4v-1H49v-1.3h1.1v1.3h3.2v1h-2.7C51.5,0.6,52.7,1.2,54,1.7z M50.7,8V6.6h-4.6c-0.1,0.5-0.2,0.9-0.3,1.3
			h4.9C50.7,7.9,50.7,8,50.7,8z M50.7,4.3h-4.4c0,0.5,0,0.9-0.1,1.3h4.5V4.3z"/>
		<path id="XMLID_59_" class="st3" d="M55.3,4.6h2.5V1.9h-1.3V0.7C56.3,1,56.2,1.2,56,1.5c-0.3-0.5-0.7-0.9-1-1.3
			c1.1-1.8,2-3.9,2.5-6.2L59-5.7c-0.2,0.9-0.5,1.8-0.8,2.6h3.4v1.4h-4c-0.3,0.8-0.7,1.6-1.1,2.4H61v1.2h-2v2.8h2.5v1.4H59v4.6
			c0.8-0.6,1.6-1.2,2.4-1.7c0.1,0.5,0.2,1,0.3,1.5c-1,0.7-1.9,1.3-2.7,1.9c-0.2,0.2-0.6,0.5-1.1,0.9l-1-1.3c0.4-0.4,0.7-0.9,0.7-1.5
			V6h-2.5V4.6H55.3z M62.5,2.1h10.7v6.8h-1.4V8.5h-1.7v2.6c0,0.6,0.3,0.9,0.8,0.9h1.6c0.5,0,0.8-0.2,0.9-0.7s0.2-1.2,0.2-2.3
			C74,9.2,74.5,9.4,75,9.6c-0.1,1-0.2,1.8-0.3,2.3c-0.1,1-0.8,1.5-1.9,1.5h-2.4c-1.1,0-1.7-0.7-1.7-2.1V8.5h-1.8
			c-0.2,2.7-1.9,4.5-5.2,5.3c-0.3-0.7-0.6-1.1-0.8-1.4c2.8-0.5,4.3-1.8,4.6-3.9H64V9h-1.5V2.1z M61.5-0.5H65c-0.3-0.4-0.6-1-1.1-1.6
			l1.2-0.7c0.4,0.5,0.9,1.1,1.4,1.9l-0.8,0.4h3.5c0.4-0.7,0.9-1.5,1.2-2.3l1.5,0.7c-0.3,0.5-0.7,1.1-1,1.6h3.8v1.2H61.5V-0.5z
			 M62.3-4h5.3c-0.3-0.4-0.6-1-1.1-1.5l1.2-0.7c0.5,0.7,1,1.3,1.4,1.9L68.4-4h5.3v1.2H62.3V-4z M71.7,3.3h-7.9v1.4h7.9V3.3z
			 M63.9,7.3h7.9V5.9h-7.9V7.3z"/>
	</g>
</g>
</svg>
