<?xml version="1.0" encoding="utf-8"?>
<!-- Generator: Adobe Illustrator 19.0.0, SVG Export Plug-In . SVG Version: 6.00 Build 0)  -->
<svg version="1.1" id="图层_1" xmlns="http://www.w3.org/2000/svg" xmlns:xlink="http://www.w3.org/1999/xlink" x="0px" y="0px"
	 viewBox="0 0 33 33" style="enable-background:new 0 0 33 33;" xml:space="preserve">
<style type="text/css">
	.st0{fill:#5ABAE0;}
</style>
<g id="XMLID_2124_">
	<path id="XMLID_2234_" class="st0" d="M16.2,0.8C7.7,0.8,0.8,7.7,0.8,16.2s6.9,15.4,15.4,15.4s15.4-6.9,15.4-15.4
		S24.8,0.8,16.2,0.8z M16.2,30.6c-8,0-14.5-6.5-14.5-14.5S8.2,1.6,16.2,1.6s14.5,6.5,14.5,14.5S24.2,30.6,16.2,30.6z"/>
</g>
<g id="XMLID_2123_">
	<path id="XMLID_2232_" class="st0" d="M30.1,17c-1.7-0.3-3,0.3-3,0.3s-5.6,3.2-9.2,3.2c-3.6,0-8.7-2.3-8.7-2.3
		c-2.8-0.5-5.1,0-6.7,0.7c1.3,6.4,6.9,11.2,13.7,11.2C23.6,30.1,29.6,24.3,30.1,17z"/>
</g>
<g id="XMLID_2122_">
	<path id="XMLID_2168_" d="M7.9,15H5.9v-0.3l0.9-0.9c0.3-0.3,0.4-0.5,0.5-0.6c0.1-0.1,0.1-0.3,0.1-0.5c0-0.2-0.1-0.3-0.2-0.4
		c-0.1-0.1-0.2-0.1-0.4-0.1c-0.3,0-0.5,0.1-0.8,0.4v-0.4c0.2-0.2,0.5-0.3,0.9-0.3c0.3,0,0.5,0.1,0.7,0.2c0.2,0.2,0.2,0.4,0.2,0.6
		c0,0.2-0.1,0.4-0.2,0.6c-0.1,0.2-0.3,0.4-0.6,0.7l-0.7,0.7v0h1.4V15z"/>
	<path id="XMLID_2170_" d="M10.4,12l-1.2,3H8.8l1.2-2.8H8.4v-0.4h2V12z"/>
	<path id="XMLID_2172_" d="M11.5,13.3c-0.4-0.2-0.6-0.4-0.6-0.8c0-0.2,0.1-0.4,0.3-0.6s0.4-0.2,0.7-0.2c0.3,0,0.5,0.1,0.6,0.2
		c0.2,0.1,0.2,0.3,0.2,0.5c0,0.3-0.2,0.6-0.6,0.8v0c0.5,0.2,0.7,0.4,0.7,0.8c0,0.3-0.1,0.5-0.3,0.6c-0.2,0.2-0.5,0.2-0.8,0.2
		c-0.3,0-0.5-0.1-0.7-0.2c-0.2-0.2-0.3-0.4-0.3-0.6C10.8,13.8,11,13.5,11.5,13.3L11.5,13.3z M11.8,13.5c-0.4,0.2-0.6,0.4-0.6,0.7
		c0,0.2,0.1,0.3,0.2,0.4c0.1,0.1,0.3,0.1,0.4,0.1c0.2,0,0.3,0,0.4-0.1c0.1-0.1,0.2-0.2,0.2-0.4C12.4,13.9,12.2,13.7,11.8,13.5z
		 M12.3,12.5c0-0.1,0-0.3-0.1-0.3c-0.1-0.1-0.2-0.1-0.4-0.1c-0.1,0-0.3,0-0.4,0.1c-0.1,0.1-0.1,0.2-0.1,0.3c0,0.3,0.2,0.5,0.5,0.6
		C12.2,13,12.3,12.8,12.3,12.5z"/>
	<path id="XMLID_2176_" d="M13.4,14.5c0.2,0.1,0.4,0.2,0.6,0.2c0.3,0,0.5-0.1,0.7-0.3c0.2-0.2,0.2-0.5,0.2-0.9c0,0,0,0,0,0
		c-0.1,0.3-0.4,0.4-0.7,0.4c-0.3,0-0.5-0.1-0.7-0.3c-0.2-0.2-0.3-0.4-0.3-0.7c0-0.3,0.1-0.6,0.3-0.8c0.2-0.2,0.4-0.3,0.7-0.3
		c0.3,0,0.6,0.1,0.7,0.4c0.2,0.2,0.3,0.6,0.3,1.1c0,0.6-0.1,1-0.3,1.3C14.7,14.9,14.4,15,14,15c-0.2,0-0.4,0-0.6-0.1V14.5z
		 M13.6,12.8c0,0.2,0.1,0.4,0.2,0.5c0.1,0.1,0.3,0.2,0.4,0.2c0.2,0,0.3-0.1,0.4-0.2c0.1-0.1,0.2-0.3,0.2-0.4c0-0.2-0.1-0.4-0.2-0.6
		s-0.3-0.2-0.4-0.2c-0.2,0-0.3,0.1-0.4,0.2C13.7,12.4,13.6,12.6,13.6,12.8z"/>
	<path id="XMLID_2179_" d="M17.7,12l-1.2,3h-0.4l1.2-2.8h-1.6v-0.4h2V12z"/>
	<path id="XMLID_2181_" d="M20.2,14.1h-0.4V15h-0.4v-0.8H18v-0.3l1.4-2.1h0.5v2h0.4V14.1z M19.4,13.8v-1.3c0-0.1,0-0.2,0-0.3h0
		c0,0.1-0.1,0.1-0.1,0.2l-0.9,1.4H19.4z"/>
	<path id="XMLID_2184_" d="M22.5,15h-1.9v-0.3l0.9-0.9c0.3-0.3,0.4-0.5,0.5-0.6c0.1-0.1,0.1-0.3,0.1-0.5c0-0.2-0.1-0.3-0.2-0.4
		c-0.1-0.1-0.2-0.1-0.4-0.1c-0.3,0-0.5,0.1-0.8,0.4v-0.4c0.2-0.2,0.5-0.3,0.9-0.3c0.3,0,0.5,0.1,0.7,0.2c0.2,0.2,0.2,0.4,0.2,0.6
		c0,0.2-0.1,0.4-0.2,0.6c-0.1,0.2-0.3,0.4-0.6,0.7L21,14.6v0h1.4V15z"/>
	<path id="XMLID_2186_" d="M22.9,11.8h3.9v0.3h-2.3c0,0.3,0,0.6,0,0.8h1.9c0,0.6-0.1,1.1-0.1,1.6c0,0.3-0.1,0.5-0.2,0.6
		c-0.1,0.1-0.3,0.2-0.6,0.2c-0.1,0-0.4,0-0.8,0c0-0.1,0-0.2-0.1-0.4c0.3,0,0.6,0.1,0.8,0.1c0.3,0,0.4-0.2,0.5-0.5
		c0-0.4,0.1-0.8,0.1-1.2h-1.5c-0.1,1-0.5,1.7-1.3,2.2c-0.1-0.1-0.1-0.2-0.2-0.3c0.8-0.5,1.2-1.2,1.2-2.1c0-0.3,0-0.6,0.1-1h-1.2
		V11.8z"/>
</g>
<g id="XMLID_2121_">
	<path id="XMLID_2130_" d="M12.8,8.2C13,8,13.1,7.8,13.2,7.5l0.2,0.1c0,0.1-0.1,0.2-0.1,0.3h0.4V8h-0.5c-0.1,0.1-0.1,0.2-0.2,0.4
		C12.9,8.3,12.8,8.3,12.8,8.2z M13.6,9.3c0,0.1,0,0.1,0,0.2c-0.1,0-0.2,0.1-0.3,0.2c0,0-0.1,0-0.1,0.1l-0.1-0.2c0,0,0.1-0.1,0.1-0.2
		V8.9h-0.3V8.7h0.3V8.4H13V8.3h0.6v0.2h-0.3v0.3h0.3v0.2h-0.3v0.6C13.4,9.4,13.5,9.3,13.6,9.3z M13.6,7.7l0.1-0.1
		c0.1,0.1,0.2,0.2,0.3,0.4l-0.1,0.1C13.8,7.9,13.7,7.8,13.6,7.7z M13.9,9.8h-0.2V8.2h0.5V7.5h0.2v0.7H15v1.3c0,0.2-0.1,0.3-0.3,0.3
		c-0.1,0-0.2,0-0.4,0c0-0.1,0-0.1,0-0.2c0.1,0,0.3,0,0.3,0c0.1,0,0.2,0,0.2-0.1V9.2h-0.9V9.8z M14.8,8.3h-0.9v0.3h0.9V8.3z
		 M13.9,9.1h0.9V8.8h-0.9V9.1z M14.6,8c0.1-0.1,0.2-0.3,0.3-0.4L15,7.7c-0.1,0.1-0.2,0.2-0.3,0.4L14.6,8z"/>
	<path id="XMLID_2155_" d="M16.3,7.6l0.1-0.1c0.1,0.1,0.1,0.2,0.2,0.3l-0.1,0.1h0.8v0.1h-0.8v0.2h0.8v0.1h-0.8v0.2h0.8v0.1h-0.8v0.2
		h0.9v0.1h-1.8v0.1h-0.2V8.2c-0.1,0.1-0.1,0.1-0.2,0.2c0,0-0.1-0.1-0.1-0.1c0.2-0.2,0.4-0.5,0.5-0.7l0.2,0.1c0,0.1-0.1,0.2-0.1,0.2
		h0.7C16.4,7.7,16.4,7.6,16.3,7.6z M15.5,9h1.8v0.7h-0.2V9.7h-1.4v0.1h-0.2V9z M15.6,8.1h0.8V7.9h-0.7l0,0V8.1z M15.6,8.4h0.8V8.2
		h-0.8V8.4z M15.6,8.7h0.8V8.5h-0.8V8.7z M17.1,9.2h-1.4v0.3h1.4V9.2z"/>
	<path id="XMLID_2162_" d="M17.8,8.5l0.1-0.1c0.1,0,0.2,0.1,0.3,0.1c0.1-0.1,0.1-0.2,0.2-0.3h-0.5c-0.1,0.1-0.2,0.3-0.3,0.4
		c0,0-0.1-0.1-0.1-0.1c0.1-0.2,0.3-0.3,0.4-0.6L18.1,8c0,0,0,0.1-0.1,0.1h0.6v0.1c-0.1,0.1-0.1,0.2-0.2,0.3c0.1,0.1,0.3,0.1,0.4,0.2
		L18.6,9c-0.1-0.1-0.3-0.2-0.4-0.2C18.1,8.8,18,8.9,17.8,9h0.7v0.7h-0.2V9.6h-0.5v0.1h-0.2V9c0,0-0.1,0-0.1,0.1c0,0,0-0.1-0.1-0.1
		c0.2-0.1,0.4-0.1,0.5-0.3C18,8.6,17.9,8.6,17.8,8.5z M17.6,7.8h0.5c0-0.1-0.1-0.1-0.1-0.2l0.2-0.1c0.1,0.1,0.1,0.2,0.1,0.3h0.4v0.3
		h-0.2V7.9h-0.8v0.2h-0.2V7.8z M18.4,9.1h-0.5v0.4h0.5V9.1z M19.2,8.4h0.2c0,0.4,0,0.7-0.1,0.8c0.2,0.2,0.4,0.3,0.6,0.4l-0.1,0.1
		c-0.1-0.1-0.3-0.3-0.5-0.4c-0.1,0.2-0.3,0.3-0.5,0.4c0,0-0.1-0.1-0.1-0.1c0.3-0.1,0.5-0.3,0.5-0.5C19.2,9.1,19.2,8.8,19.2,8.4z
		 M18.8,8.1h0.3l0.1-0.3h-0.4V7.6h1.1v0.2h-0.5l-0.1,0.3h0.5v1.2h-0.2v-1h-0.7v1h-0.2V8.1z"/>
</g>
</svg>
