<?xml version="1.0" encoding="utf-8"?>
<!-- Generator: Adobe Illustrator 19.0.0, SVG Export Plug-In . SVG Version: 6.00 Build 0)  -->
<svg version="1.1" id="图层_1" xmlns="http://www.w3.org/2000/svg" xmlns:xlink="http://www.w3.org/1999/xlink" x="0px" y="0px"
	 viewBox="0 0 33 33" style="enable-background:new 0 0 33 33;" xml:space="preserve">
<style type="text/css">
	.st0{fill:#5ABAE0;}
</style>
<path id="XMLID_2579_" class="st0" d="M17.1,2C8.9,2,2.4,8.5,2.4,16.6s6.6,14.7,14.7,14.7s14.7-6.6,14.7-14.7S25.2,2,17.1,2z
	 M17,29.3c-7,0-12.7-5.7-12.7-12.7C4.3,9.5,10,3.9,17,3.9c7,0,12.7,5.7,12.7,12.7C29.7,23.6,24,29.3,17,29.3z"/>
<g id="XMLID_4384_">
	<path id="XMLID_1778_" class="st0" d="M10.9,21.6H8.3v-0.5l1.2-1.2c0.3-0.3,0.6-0.6,0.7-0.8c0.1-0.2,0.2-0.4,0.2-0.6
		c0-0.2-0.1-0.4-0.2-0.6c-0.1-0.1-0.3-0.2-0.6-0.2c-0.4,0-0.7,0.2-1.1,0.5v-0.5c0.3-0.3,0.7-0.4,1.2-0.4c0.4,0,0.7,0.1,0.9,0.3
		c0.2,0.2,0.3,0.5,0.3,0.8c0,0.3-0.1,0.5-0.2,0.8c-0.1,0.3-0.4,0.6-0.8,1l-1,0.9v0h1.9V21.6z"/>
	<path id="XMLID_1780_" class="st0" d="M14.3,17.5l-1.6,4h-0.6l1.6-3.7h-2.1v-0.5h2.7V17.5z"/>
	<path id="XMLID_1782_" class="st0" d="M15.8,19.3c-0.5-0.2-0.8-0.6-0.8-1c0-0.3,0.1-0.6,0.4-0.8c0.2-0.2,0.5-0.3,0.9-0.3
		c0.3,0,0.6,0.1,0.8,0.3c0.2,0.2,0.3,0.4,0.3,0.7c0,0.5-0.3,0.8-0.8,1.1v0c0.6,0.2,0.9,0.6,0.9,1.1c0,0.3-0.1,0.6-0.4,0.8
		c-0.3,0.2-0.6,0.3-1.1,0.3c-0.4,0-0.7-0.1-0.9-0.3c-0.2-0.2-0.3-0.5-0.3-0.8C14.9,20,15.2,19.6,15.8,19.3L15.8,19.3z M16.2,19.6
		c-0.5,0.2-0.8,0.5-0.8,0.9c0,0.2,0.1,0.4,0.2,0.5c0.2,0.1,0.3,0.2,0.6,0.2c0.2,0,0.4-0.1,0.6-0.2c0.1-0.1,0.2-0.3,0.2-0.5
		C17,20.1,16.8,19.8,16.2,19.6z M16.9,18.3c0-0.2-0.1-0.3-0.2-0.4c-0.1-0.1-0.3-0.2-0.5-0.2c-0.2,0-0.3,0.1-0.5,0.2
		c-0.1,0.1-0.2,0.3-0.2,0.4c0,0.4,0.2,0.6,0.7,0.8C16.7,18.9,16.9,18.7,16.9,18.3z"/>
	<path id="XMLID_2052_" class="st0" d="M18.4,21c0.2,0.1,0.5,0.2,0.8,0.2c0.4,0,0.7-0.1,0.9-0.4c0.2-0.3,0.3-0.7,0.3-1.3
		c0,0,0,0,0,0c-0.2,0.4-0.5,0.5-0.9,0.5c-0.4,0-0.6-0.1-0.9-0.4c-0.2-0.2-0.3-0.6-0.3-0.9c0-0.4,0.1-0.8,0.4-1
		c0.3-0.3,0.6-0.4,1-0.4c0.4,0,0.7,0.2,1,0.5c0.2,0.3,0.4,0.8,0.4,1.4c0,0.8-0.2,1.4-0.5,1.8c-0.3,0.4-0.7,0.6-1.3,0.6
		c-0.3,0-0.5,0-0.8-0.1V21z M18.7,18.6c0,0.3,0.1,0.5,0.2,0.7c0.1,0.2,0.3,0.2,0.6,0.2c0.2,0,0.4-0.1,0.6-0.2
		c0.2-0.2,0.2-0.3,0.2-0.6c0-0.3-0.1-0.6-0.2-0.8c-0.1-0.2-0.3-0.3-0.6-0.3c-0.2,0-0.4,0.1-0.6,0.3C18.7,18.2,18.7,18.4,18.7,18.6z"
		/>
	<path id="XMLID_2055_" class="st0" d="M21.3,17.4h5.2v0.4h-3.1c0,0.4,0,0.8-0.1,1.1h2.5c0,0.7-0.1,1.4-0.1,2.1
		c0,0.4-0.1,0.7-0.3,0.9c-0.1,0.2-0.4,0.2-0.8,0.3c-0.2,0-0.5,0-1,0c0-0.1,0-0.3-0.1-0.5c0.5,0.1,0.8,0.1,1.1,0.1
		c0.4,0,0.6-0.2,0.6-0.7c0-0.5,0.1-1,0.1-1.6h-2.1c-0.1,1.3-0.7,2.3-1.8,3c-0.1-0.1-0.2-0.2-0.3-0.4c1-0.6,1.6-1.5,1.6-2.8
		c0-0.4,0.1-0.8,0.1-1.3h-1.6V17.4z"/>
</g>
<g id="XMLID_4383_">
	<path id="XMLID_1540_" class="st0" d="M12.8,12.3c0.2-0.3,0.3-0.5,0.4-0.9l0.2,0.1c0,0.1-0.1,0.2-0.2,0.4h0.5v0.2h-0.6
		c-0.1,0.1-0.2,0.3-0.3,0.4C12.9,12.4,12.9,12.3,12.8,12.3z M13.8,13.5c0,0.1,0,0.2,0,0.2c-0.1,0.1-0.3,0.1-0.4,0.2
		c0,0-0.1,0-0.1,0.1l-0.1-0.2c0.1-0.1,0.1-0.1,0.1-0.2v-0.6h-0.4v-0.2h0.4v-0.4h-0.2v-0.2h0.7v0.2h-0.3v0.4h0.4v0.2h-0.4v0.7
		C13.6,13.7,13.7,13.6,13.8,13.5z M13.8,11.6l0.2-0.1c0.1,0.1,0.3,0.3,0.4,0.4l-0.2,0.1C14.1,11.9,14,11.8,13.8,11.6z M14.1,14.2
		h-0.2v-1.9h0.6v-0.8h0.2v0.8h0.7v1.6c0,0.2-0.1,0.3-0.3,0.3c-0.1,0-0.2,0-0.4,0c0-0.1,0-0.1,0-0.2c0.2,0,0.3,0,0.4,0
		c0.1,0,0.2-0.1,0.2-0.2v-0.3h-1.1V14.2z M15.2,12.4h-1.1v0.3h1.1V12.4z M14.1,13.3h1.1V13h-1.1V13.3z M14.9,12
		c0.1-0.1,0.3-0.3,0.4-0.5l0.2,0.1c-0.1,0.1-0.2,0.3-0.4,0.5L14.9,12z"/>
	<path id="XMLID_1764_" class="st0" d="M17,11.5l0.2-0.1c0.1,0.1,0.2,0.2,0.2,0.3l-0.1,0.1h1v0.2h-1v0.2h0.9v0.2h-0.9v0.2h0.9v0.2
		h-0.9v0.2h1v0.2h-2.1v0.1H16v-0.9c-0.1,0.1-0.2,0.2-0.2,0.3c0-0.1-0.1-0.1-0.1-0.2c0.3-0.3,0.5-0.5,0.6-0.9l0.2,0.1
		c-0.1,0.1-0.1,0.2-0.2,0.3h0.8C17.1,11.7,17.1,11.6,17,11.5z M16,13.3h2.1v0.9h-0.2V14h-1.7v0.1H16V13.3z M16.2,12.1h0.9v-0.2h-0.9
		l0,0V12.1z M16.2,12.5h0.9v-0.2h-0.9V12.5z M16.2,12.9h0.9v-0.2h-0.9V12.9z M17.9,13.4h-1.7v0.4h1.7V13.4z"/>
	<path id="XMLID_1772_" class="st0" d="M18.8,12.7l0.1-0.2c0.1,0.1,0.2,0.1,0.3,0.2c0.1-0.1,0.2-0.2,0.2-0.3H19
		c-0.1,0.2-0.2,0.3-0.3,0.4c0,0-0.1-0.1-0.1-0.1c0.2-0.2,0.3-0.4,0.4-0.7l0.2,0.1c0,0.1-0.1,0.1-0.1,0.2h0.7v0.2
		c-0.1,0.2-0.2,0.3-0.3,0.4c0.2,0.1,0.3,0.2,0.4,0.2l-0.1,0.2c-0.2-0.1-0.3-0.2-0.5-0.3c-0.1,0.1-0.3,0.2-0.5,0.3h0.9v0.9h-0.2V14
		h-0.6v0.1h-0.2v-0.9c-0.1,0-0.1,0-0.2,0.1c0,0-0.1-0.1-0.1-0.2c0.2-0.1,0.4-0.2,0.6-0.3C19,12.8,18.9,12.7,18.8,12.7z M18.6,11.8
		h0.6c0-0.1-0.1-0.2-0.1-0.3l0.2-0.1c0.1,0.1,0.1,0.2,0.2,0.3h0.5v0.4h-0.2v-0.2h-0.9v0.2h-0.2V11.8z M19.5,13.4h-0.6v0.4h0.6V13.4z
		 M20.4,12.5h0.2c0,0.5,0,0.8-0.1,1c0.3,0.2,0.5,0.4,0.7,0.5l-0.1,0.2c-0.2-0.2-0.4-0.3-0.6-0.5c-0.1,0.2-0.3,0.4-0.6,0.5
		c0-0.1-0.1-0.1-0.1-0.2c0.3-0.2,0.5-0.3,0.6-0.5C20.4,13.3,20.4,13,20.4,12.5z M19.9,12.1h0.4l0.1-0.3h-0.5v-0.2h1.3v0.2h-0.6
		l-0.1,0.3h0.6v1.4h-0.2v-1.2h-0.8v1.2h-0.2V12.1z"/>
</g>
</svg>
