<?xml version="1.0" encoding="utf-8"?>
<!-- Generator: Adobe Illustrator 19.0.0, SVG Export Plug-In . SVG Version: 6.00 Build 0)  -->
<svg version="1.1" id="图层_1" xmlns="http://www.w3.org/2000/svg" xmlns:xlink="http://www.w3.org/1999/xlink" x="0px" y="0px"
	 viewBox="0 0 33 33" style="enable-background:new 0 0 33 33;" xml:space="preserve">
<style type="text/css">
	.st0{fill:#5ABAE0;}
	.st1{fill:#FFBE57;}
	.st2{fill:#78648B;}
	.st3{fill:#00C49F;}
</style>
<g id="XMLID_2157_">
	<path id="XMLID_2158_" class="st0" d="M7.3,26.3H6.2v-2.8c0-0.1-0.1-0.3-0.2-0.4C5.9,23,5.8,23,5.7,23c-0.1,0-0.3,0.1-0.4,0.2
		C5.2,23.3,5,23.4,5,23.6v2.8H3.9v-4H5V23c0-0.2,0.1-0.3,0.2-0.4c0.1-0.1,0.2-0.1,0.4-0.1h0.5c0.4,0,0.6,0.1,0.8,0.4
		c0.1-0.1,0.2-0.2,0.3-0.3c0.1-0.1,0.3-0.1,0.5-0.1h0.5c0.3,0,0.6,0.1,0.8,0.3s0.3,0.5,0.3,0.8v2.8H8.4v-2.8c0-0.1-0.1-0.3-0.2-0.4
		C8.2,23,8.1,23,7.9,23c-0.1,0-0.3,0.1-0.4,0.2c-0.1,0.1-0.2,0.2-0.2,0.4v2.7H7.3z"/>
	<path id="XMLID_2159_" class="st0" d="M11.8,22.3H13c0.3,0,0.6,0.1,0.8,0.3s0.3,0.5,0.3,0.8v1.7c0,0.3-0.1,0.5-0.3,0.8
		c-0.2,0.3-0.5,0.3-0.8,0.3h-1.1c-0.3,0-0.6-0.1-0.8-0.3s-0.3-0.5-0.3-0.8v-1.7c0-0.3,0.1-0.6,0.3-0.8
		C11.3,22.4,11.5,22.3,11.8,22.3z M11.8,23.5v1.7c0,0.1,0.1,0.3,0.2,0.4c0.1,0.1,0.2,0.2,0.4,0.2s0.3-0.1,0.4-0.2
		c0.1-0.1,0.2-0.2,0.2-0.4v-1.7c0-0.1-0.1-0.3-0.2-0.4C12.7,23,12.6,23,12.5,23s-0.3,0.1-0.4,0.2C11.9,23.2,11.8,23.3,11.8,23.5z"/>
	<path id="XMLID_2162_" class="st0" d="M16.4,22.3h1.1c0.3,0,0.6,0.1,0.8,0.3s0.3,0.5,0.3,0.8v1.7c0,0.3-0.1,0.5-0.3,0.8
		c-0.2,0.3-0.5,0.3-0.8,0.3h-1.1c-0.3,0-0.6-0.1-0.8-0.3s-0.3-0.5-0.3-0.8v-1.7c0-0.3,0.1-0.6,0.3-0.8S16.1,22.3,16.4,22.3z
		 M16.4,23.5v1.7c0,0.1,0.1,0.3,0.2,0.4c0.1,0.1,0.2,0.2,0.4,0.2s0.3-0.1,0.4-0.2c0.1-0.1,0.2-0.2,0.2-0.4v-1.7
		c0-0.1-0.1-0.3-0.2-0.4C17.4,23,17.1,23,17,23c-0.1,0-0.3,0.1-0.4,0.2C16.4,23.2,16.4,23.3,16.4,23.5z"/>
	<path id="XMLID_2165_" class="st0" d="M20.9,22.3h1.1v4c0,0.3-0.1,0.6-0.3,0.8s-0.5,0.3-0.8,0.3h-0.5c-0.6,0-1-0.4-1.1-1.1h0.5
		c0,0.4,0.2,0.5,0.5,0.5c0.1,0,0.3-0.1,0.4-0.2c0.1-0.1,0.2-0.2,0.2-0.4L20.9,22.3L20.9,22.3z M20.9,21.8v-0.5h1.1v0.5H20.9z"/>
	<path id="XMLID_2168_" class="st0" d="M23.2,26.3v-4h1.1V23c0-0.2,0.1-0.3,0.2-0.4c0.1-0.1,0.2-0.1,0.4-0.1h0.5
		c0.3,0,0.6,0.1,0.8,0.3s0.3,0.5,0.3,0.8v2.8h-1.1v-2.8c0-0.1-0.1-0.3-0.2-0.4C25.2,23.1,25,23,24.9,23c-0.1,0-0.3,0.1-0.4,0.2
		c-0.1,0.1-0.2,0.2-0.2,0.4v2.8h-1L23.2,26.3z"/>
	<path id="XMLID_2169_" class="st0" d="M27.7,26.3v-4h1.1V23c0-0.2,0.1-0.3,0.2-0.4c0.1-0.1,0.2-0.1,0.4-0.1H30
		c0.3,0,0.6,0.1,0.8,0.3s0.3,0.5,0.3,0.8v2.8H30v-2.8c0-0.1-0.1-0.3-0.2-0.4c-0.1-0.1-0.2-0.2-0.4-0.2c-0.1,0-0.3,0.1-0.4,0.2
		c-0.1,0.1-0.2,0.2-0.2,0.4v2.8h-1L27.7,26.3z"/>
	<path id="XMLID_2170_" class="st1" d="M17.1,19.6c0,0.6-0.4,0.9-0.9,0.9h-0.9c-0.3,0-0.5-0.1-0.7-0.3s-0.3-0.4-0.3-0.7v-2.3
		c0-0.3,0.1-0.5,0.3-0.7c0.2-0.2,0.4-0.3,0.7-0.3h0.9c0.6,0,0.9,0.3,0.9,0.9h-0.5c0-0.3-0.2-0.5-0.5-0.5h-0.5c-0.1,0-0.2,0-0.3,0.1
		c-0.1,0.1-0.1,0.2-0.1,0.3v2.4c0,0.1,0,0.2,0.1,0.3c0.1,0.1,0.2,0.1,0.3,0.1H16c0.3,0,0.4-0.2,0.5-0.5h0.5V19.6z"/>
	<path id="XMLID_2171_" class="st1" d="M18,20.7v-4.4h0.9v4.4H18z"/>
	<path id="XMLID_2172_" class="st1" d="M20.9,17.2h0.9c0.3,0,0.5,0.1,0.7,0.3s0.3,0.4,0.3,0.7v1.5c0,0.3-0.1,0.5-0.3,0.7
		s-0.4,0.3-0.7,0.3h-0.9c-0.3,0-0.5-0.1-0.7-0.3s-0.3-0.4-0.3-0.7v-1.6c0-0.3,0.1-0.5,0.3-0.7C20.5,17.3,20.7,17.2,20.9,17.2
		L20.9,17.2z M20.9,18.2v1.5c0,0.1,0,0.2,0.1,0.3c0.1,0.1,0.2,0.1,0.3,0.1c0.1,0,0.2,0,0.3-0.1c0.1-0.1,0.1-0.2,0.1-0.3v-1.5
		c0-0.1,0-0.2-0.1-0.3c-0.1-0.1-0.1-0.1-0.2-0.1c-0.1,0-0.2,0-0.3,0.1C21,18,20.9,18.1,20.9,18.2L20.9,18.2z"/>
	<path id="XMLID_2175_" class="st1" d="M26.8,17.2v3.4h-0.9v-0.5c0,0.3-0.2,0.5-0.5,0.5h-0.5c-0.3,0-0.5-0.1-0.7-0.3
		s-0.3-0.4-0.3-0.7v-2.4h0.9v2.4c0,0.1,0,0.2,0.1,0.3C24.9,20,25,20,25.1,20c0.1,0,0.2,0,0.3-0.1c0.1-0.1,0.1-0.2,0.1-0.3v-2.4H26.8
		z"/>
	<path id="XMLID_2176_" class="st1" d="M30.7,20.7h-0.9v-0.5c0,0.3-0.2,0.5-0.5,0.5h-0.5c-0.3,0-0.5-0.1-0.7-0.3s-0.3-0.4-0.3-0.7
		v-1.5c0-0.3,0.1-0.5,0.3-0.7s0.4-0.3,0.7-0.3h0.9v-0.8h0.9v4.4H30.7z M29.7,17.7h-0.5c-0.1,0-0.2,0-0.3,0.1
		c-0.1,0.1-0.1,0.2-0.1,0.3v1.5c0,0.1,0,0.2,0.1,0.3C29,20,29.1,20,29.2,20c0.1,0,0.2,0,0.3-0.1c0.1-0.1,0.1-0.2,0.1-0.3v-1.9H29.7z
		"/>
	<path id="XMLID_2179_" class="st2" d="M11.1,14.9h2.8v0.6H13c0.1,0,0.2,0,0.2,0.1c0,0,0.1,0.1,0.1,0.2v0.3c0,0.2-0.1,0.3-0.2,0.4
		s-0.3,0.2-0.4,0.2h-0.9c-0.2,0-0.3-0.1-0.4-0.2s-0.2-0.3-0.2-0.4L11.1,14.9L11.1,14.9z M11.4,15.6v0.3c0,0.1,0,0.2,0.1,0.2
		s0.1,0.1,0.2,0.1h0.9c0.1,0,0.2,0,0.2-0.1c0-0.1,0.1-0.1,0.1-0.2c0-0.1,0-0.2-0.1-0.2s-0.1-0.1-0.2-0.1H11.4z"/>
	<path id="XMLID_2182_" class="st2" d="M11.1,17.4h2.2v0.6h-2.2V17.4z M13.6,17.4h0.3v0.6h-0.3V17.4z"/>
	<path id="XMLID_2185_" class="st2" d="M13.3,20.6h-2.5c-0.2,0-0.3-0.1-0.4-0.2c-0.1-0.1-0.2-0.3-0.2-0.4v-0.6
		c0-0.4,0.2-0.6,0.6-0.6V19c-0.2,0-0.3,0.1-0.3,0.3v0.3c0,0.1,0,0.2,0.1,0.2c0.1,0.1,0.1,0.1,0.2,0.1h0.6c-0.2,0-0.3-0.1-0.3-0.3
		v-0.3c0-0.2,0.1-0.3,0.2-0.4c0.1-0.1,0.3-0.2,0.4-0.2h0.9c0.2,0,0.3,0.1,0.4,0.2c0.1,0.1,0.2,0.3,0.2,0.4L13.3,20.6L13.3,20.6z
		 M13,19.9v-0.3c0-0.1,0-0.2-0.1-0.2c-0.1-0.1-0.1-0.1-0.2-0.1h-0.9c-0.1,0-0.2,0-0.2,0.1c0,0.1-0.1,0.1-0.1,0.2
		c0,0.1,0,0.2,0.1,0.2s0.1,0.1,0.2,0.1L13,19.9L13,19.9z"/>
	<path id="XMLID_2188_" class="st2" d="M2.7,20.7H2.1v-0.3c0,0.2-0.1,0.3-0.3,0.3H1.5c-0.2,0-0.3-0.1-0.4-0.2
		C1,20.4,0.9,20.1,0.9,20v-0.9c0-0.2,0.1-0.3,0.2-0.4c0.1-0.1,0.3-0.2,0.4-0.2h0.6v-0.6h0.6V20.7z M2.1,18.8H1.8
		c-0.1,0-0.2,0-0.2,0.1C1.5,19,1.5,19,1.5,19.1V20c0,0.1,0,0.2,0.1,0.2c0.1,0.1,0.1,0.1,0.2,0.1s0.2,0,0.2-0.1
		c0-0.1,0.1-0.1,0.1-0.2V18.8z"/>
	<path id="XMLID_2191_" class="st2" d="M4.6,19.4v-0.3c0-0.1,0-0.2-0.1-0.2c0-0.1-0.1-0.1-0.2-0.1H4c-0.2,0-0.3,0.1-0.3,0.3H3.4
		c0-0.4,0.2-0.6,0.6-0.6h0.6c0.2,0,0.3,0.1,0.4,0.2c0.1,0.1,0.2,0.3,0.2,0.4v1.6H4.6v-0.3c0,0.2-0.1,0.3-0.3,0.3H4
		c-0.2,0-0.3-0.1-0.4-0.2c-0.1-0.1-0.2-0.3-0.2-0.4l0,0c0-0.2,0.1-0.3,0.2-0.4c0.1-0.1,0.3-0.2,0.4-0.2L4.6,19.4L4.6,19.4z
		 M4.6,19.7H4.3c-0.1,0-0.2,0-0.2,0.1C4.1,19.9,4,19.9,4,20l0,0c0,0.1,0,0.2,0.1,0.2c0.1,0.1,0.1,0.1,0.2,0.1s0.2,0,0.2-0.1
		c0-0.1,0.1-0.1,0.1-0.2L4.6,19.7L4.6,19.7z"/>
	<path id="XMLID_2194_" class="st2" d="M6.2,17.9h0.6v0.6h0.3v0.3H6.8V20c0,0.1,0,0.2,0.1,0.2C7,20.4,7,20.4,7.1,20.4l0,0v0.3H6.8
		c-0.2,0-0.3-0.1-0.4-0.2c-0.1-0.1-0.2-0.3-0.2-0.4v-1.3H5.9v-0.3h0.3L6.2,17.9L6.2,17.9z"/>
	<path id="XMLID_2195_" class="st2" d="M9,19.4v-0.3c0-0.1,0-0.2-0.1-0.2c0-0.1-0.1-0.1-0.2-0.1H8.4c-0.2,0-0.3,0.1-0.3,0.3H7.8
		c0-0.4,0.2-0.6,0.6-0.6H9c0.2,0,0.3,0.1,0.4,0.2c0.1,0.1,0.2,0.3,0.2,0.4v1.6H9v-0.3c0,0.2-0.1,0.3-0.3,0.3H8.4
		c-0.2,0-0.3-0.1-0.4-0.2c-0.1-0.1-0.2-0.3-0.2-0.4l0,0c0-0.2,0.1-0.3,0.2-0.4c0.1-0.1,0.3-0.2,0.4-0.2L9,19.4L9,19.4z M9,19.7H8.7
		c-0.1,0-0.2,0-0.2,0.1c0,0.1-0.1,0.1-0.1,0.2l0,0c0,0.1,0,0.2,0.1,0.2c0.1,0.1,0.1,0.1,0.2,0.1s0.2,0,0.2-0.1C8.9,20.1,9,20.1,9,20
		V19.7L9,19.7z"/>
	<path id="XMLID_2198_" class="st3" d="M5.5,10.4h0.9v2.8h0.4c0.1,0,0.2,0,0.3-0.1s0.1-0.2,0.1-0.3v-2.4h0.9v2.8h0.5
		c0.1,0,0.2,0,0.3-0.1s0.1-0.2,0.1-0.3v-2.4h0.9v1.7c0,0.4-0.2,0.8-0.5,1.1s-0.7,0.5-1.1,0.5H7.1v-0.2c-0.2,0.1-0.4,0.1-0.6,0.1H5.3
		v-3.2H5.5z"/>
	<path id="XMLID_2199_" class="st3" d="M12,10.4H13c0.2,0,0.5,0.1,0.6,0.3c0.2,0.2,0.3,0.4,0.3,0.6v1.5c0,0.2-0.1,0.5-0.3,0.6
		c-0.2,0.2-0.4,0.3-0.6,0.3H12c-0.2,0-0.5-0.1-0.6-0.3c-0.2-0.2-0.3-0.4-0.3-0.6v-1.5c0-0.2,0.1-0.5,0.3-0.6
		C11.5,10.5,11.7,10.4,12,10.4z M12,11.3v1.5c0,0.1,0,0.2,0.1,0.3s0.2,0.1,0.3,0.1s0.2,0,0.3-0.1s0.1-0.2,0.1-0.3v-1.5
		c0-0.1,0-0.2-0.1-0.3s-0.2-0.1-0.3-0.1s-0.2,0-0.3,0.1S12,11.2,12,11.3z"/>
	<path id="XMLID_2202_" class="st3" d="M15.8,13.7h-0.9v-3.3h0.9v0.9c0-0.3,0.1-0.5,0.3-0.7c0.2-0.2,0.4-0.2,0.6-0.2h0.4v0.9h-0.9
		c-0.1,0-0.2,0-0.3,0.1s-0.1,0.2-0.1,0.3L15.8,13.7L15.8,13.7z"/>
	<path id="XMLID_2203_" class="st3" d="M20.5,13.7h-0.9v-0.5c0,0.3-0.2,0.5-0.5,0.5h-0.5c-0.2,0-0.5-0.1-0.6-0.3
		c-0.2-0.2-0.3-0.4-0.3-0.6v-1.5c0-0.2,0.1-0.5,0.3-0.6c0.2-0.2,0.4-0.3,0.6-0.3h0.9V9.4h0.9v4.3H20.5z M19.6,10.9H19
		c-0.1,0-0.2,0-0.3,0.1c-0.1,0.1-0.1,0.2-0.1,0.3v1.5c0,0.1,0,0.2,0.1,0.3c0.1,0.1,0.2,0.1,0.3,0.1c0.1,0,0.2,0,0.3-0.1
		c0.1-0.1,0.1-0.2,0.1-0.3v-1.9H19.6z"/>
	<path id="XMLID_2206_" class="st3" d="M21.2,13.5v-0.9h0.8v-0.4h0.4v0.4h1.8c0.1,0,0.2,0,0.3-0.1c0.1-0.1,0.1-0.2,0.1-0.2l0,0h0.4
		v0.4c0,0.2-0.1,0.4-0.2,0.6c-0.2,0.2-0.4,0.2-0.6,0.2h-1.8v0.4h-0.4v-0.4H21.2L21.2,13.5z"/>
	<path id="XMLID_2207_" class="st3" d="M23.4,9.6H23c-0.1,0-0.2,0-0.3,0.1c-0.1,0.1-0.1,0.2-0.1,0.3v0.4c0,0.2,0.1,0.4,0.4,0.4v0.4
		c-0.6-0.1-0.8-0.3-0.8-0.8V9.6c0-0.2,0.1-0.4,0.2-0.6c0.2-0.2,0.4-0.2,0.6-0.2h2.2v0.8h-0.4c0.3,0,0.4,0.2,0.4,0.4v0.4
		c0,0.2-0.1,0.4-0.2,0.6c-0.2,0.2-0.4,0.2-0.6,0.2l0,0c-0.2,0-0.4-0.1-0.6-0.2c-0.2-0.2-0.2-0.4-0.2-0.6V9.6L23.4,9.6z M23.9,9.6V10
		c0,0.1,0,0.2,0.1,0.3c0.1,0.1,0.2,0.1,0.3,0.1l0,0c0.1,0,0.2,0,0.3-0.1c0.1-0.1,0.1-0.2,0.1-0.3s0-0.2-0.1-0.3
		c-0.1-0.1-0.2-0.1-0.3-0.1L23.9,9.6L23.9,9.6z"/>
	<path id="XMLID_2210_" class="st3" d="M22.2,5.2h3.4c0.2,0,0.4,0.1,0.6,0.2s0.2,0.4,0.2,0.6v0.8c0,0.5-0.3,0.8-0.8,0.8V7.3
		C25.9,7.3,26,7,26,6.8V6.4c0-0.1,0-0.2-0.1-0.3C25.8,6,25.7,6,25.6,6h-0.8c0.3,0,0.4,0.2,0.4,0.4v0.4c0,0.2-0.1,0.4-0.2,0.6
		c-0.2,0.2-0.4,0.2-0.6,0.2h-1.3c-0.2,0-0.4-0.1-0.6-0.2c-0.2-0.2-0.2-0.4-0.2-0.6V5.2H22.2z M22.6,6.1v0.4c0,0.1,0,0.2,0.1,0.3
		c0.1,0.1,0.2,0.1,0.3,0.1h1.3c0.1,0,0.2,0,0.3-0.1c0.1-0.1,0.1-0.2,0.1-0.3s0-0.2-0.1-0.3c-0.1-0.1-0.2-0.1-0.3-0.1H22.6z"/>
</g>
</svg>
