<?xml version="1.0" encoding="utf-8"?>
<!-- Generator: Adobe Illustrator 19.0.0, SVG Export Plug-In . SVG Version: 6.00 Build 0)  -->
<svg version="1.1" id="图层_1" xmlns="http://www.w3.org/2000/svg" xmlns:xlink="http://www.w3.org/1999/xlink" x="0px" y="0px"
	 viewBox="0 0 44.3 44.3" style="enable-background:new 0 0 44.3 44.3;" xml:space="preserve">
<style type="text/css">
	.st0{fill:#5E91B0;}
	.st1{fill:#FFBC3B;}
</style>
<g id="XMLID_15_">
	<g id="XMLID_33_">
		<path id="XMLID_37_" class="st0" d="M6.7,13.6c1.8,0,3.6,0,5.5,0c-0.4-0.4-0.8-0.8-1.1-1.1c0,6.9-0.1,13.9-0.1,20.8
			c0,0.6,0.5,1.1,1.1,1.1c2.8,0,5.5,0,8.3,0c0.6,0,1.1-0.5,1.1-1.1c0-5.7,0-11.4,0-17.1c-0.4,0.4-0.8,0.8-1.1,1.1c2.4,0,4.9,0,7.3,0
			c-0.4-0.4-0.8-0.8-1.1-1.1c0,3.2,0,6.3,0,9.5c0,0.6,0.5,1.1,1.1,1.1c3.1,0,6.2,0,9.3,0c1.4,0,1.5-2.2,0-2.2c-3.1,0-6.2,0-9.3,0
			c0.4,0.4,0.8,0.8,1.1,1.1c0-3.2,0-6.3,0-9.5c0-0.6-0.5-1.1-1.1-1.1c-2.4,0-4.9,0-7.3,0c-0.6,0-1.1,0.5-1.1,1.1
			c0,5.7,0,11.4,0,17.1c0.4-0.4,0.8-0.8,1.1-1.1c-2.8,0-5.5,0-8.3,0c0.4,0.4,0.8,0.8,1.1,1.1c0-6.9,0.1-13.9,0.1-20.8
			c0-0.6-0.5-1.1-1.1-1.1c-1.8,0-3.6,0-5.5,0C5.3,11.3,5.3,13.6,6.7,13.6L6.7,13.6z"/>
	</g>
</g>
<g id="XMLID_14_">
	<g id="XMLID_27_">
		<path id="XMLID_31_" class="st1" d="M6.7,20.8c1.8,0,3.6,0,5.5,0c-0.4-0.4-0.8-0.8-1.1-1.1c0,2.1-0.1,4.1-0.1,6.2
			c0,0.6,0.5,1.1,1.1,1.1c2.8,0,5.5,0,8.3,0c0.6,0,1.1-0.5,1.1-1.1c0-5.7,0-11.4,0-17.1c-0.4,0.4-0.8,0.8-1.1,1.1c2.4,0,4.9,0,7.3,0
			c-0.4-0.4-0.8-0.8-1.1-1.1c0,4.4,0,8.8,0,13.1c0,0.6,0.5,1.1,1.1,1.1c3.1,0,6.2,0,9.3,0c1.4,0,1.5-2.2,0-2.2c-3.1,0-6.2,0-9.3,0
			c0.4,0.4,0.8,0.8,1.1,1.1c0-4.4,0-8.8,0-13.1c0-0.6-0.5-1.1-1.1-1.1c-2.4,0-4.9,0-7.3,0c-0.6,0-1.1,0.5-1.1,1.1
			c0,5.7,0,11.4,0,17.1c0.4-0.4,0.8-0.8,1.1-1.1c-2.8,0-5.5,0-8.3,0c0.4,0.4,0.8,0.8,1.1,1.1c0-2.1,0.1-4.1,0.1-6.2
			c0-0.6-0.5-1.1-1.1-1.1c-1.8,0-3.6,0-5.5,0C5.3,18.6,5.3,20.8,6.7,20.8L6.7,20.8z"/>
	</g>
</g>
</svg>
