<?xml version="1.0" encoding="utf-8"?>
<!-- Generator: Adobe Illustrator 19.0.0, SVG Export Plug-In . SVG Version: 6.00 Build 0)  -->
<svg version="1.1" id="图层_1" xmlns="http://www.w3.org/2000/svg" xmlns:xlink="http://www.w3.org/1999/xlink" x="0px" y="0px"
	 viewBox="0 0 33 33" style="enable-background:new 0 0 33 33;" xml:space="preserve">
<style type="text/css">
	.st0{fill:#5ABAE0;}
	.st1{fill:#FFCB33;}
	.st2{fill:#FF6666;}
	.st3{fill:#6698FF;}
	.st4{fill:#9898CB;}
	.st5{fill:#03BAC3;}
	.st6{fill:#349898;}
</style>
<g id="XMLID_1785_">
	<path id="XMLID_1804_" class="st0" d="M15.5,21.2c0,1,0.2,2,0.6,2.9c0.4,0.9,0.9,1.8,1.7,2.5c0.7,0.7,1.6,1.3,2.5,1.7
		c0.9,0.4,1.9,0.6,2.9,0.6c1,0,2-0.2,2.9-0.6c0.9-0.4,1.8-0.9,2.5-1.7c0.7-0.7,1.3-1.6,1.7-2.5c0.4-0.9,0.6-1.9,0.6-2.9
		c0-1-0.2-2-0.6-2.9c-0.4-0.9-0.9-1.8-1.7-2.5c-0.7-0.7-1.6-1.3-2.5-1.7c-0.9-0.4-1.9-0.6-2.9-0.6c-1,0-2,0.2-2.9,0.6
		c-0.9,0.4-1.8,0.9-2.5,1.7c-0.7,0.7-1.3,1.6-1.7,2.5C15.7,19.3,15.5,20.3,15.5,21.2L15.5,21.2z M15.5,21.2"/>
	<path id="XMLID_1801_" class="st1" d="M2.6,10.1c0,1.3,0.6,2.7,1.5,3.6c0.9,0.9,2.3,1.5,3.6,1.5c1.3,0,2.7-0.6,3.6-1.5
		c0.9-0.9,1.5-2.3,1.5-3.6c0-1.3-0.6-2.7-1.5-3.6C10.4,5.6,9,5,7.7,5C6.4,5,5,5.6,4.1,6.5C3.1,7.5,2.6,8.8,2.6,10.1L2.6,10.1z
		 M2.6,10.1"/>
	<path id="XMLID_1798_" class="st2" d="M12.8,9.6c0,0.5,0.2,1,0.5,1.3c0.3,0.3,0.8,0.5,1.3,0.5c0.5,0,1-0.2,1.3-0.5
		c0.3-0.3,0.5-0.8,0.5-1.3c0-0.5-0.2-1-0.5-1.3c-0.3-0.3-0.8-0.5-1.3-0.5c-0.5,0-1,0.2-1.3,0.5C13,8.7,12.8,9.1,12.8,9.6L12.8,9.6z
		 M12.8,9.6"/>
	<path id="XMLID_1795_" class="st3" d="M2.3,16.1c0,0.5,0.2,1,0.5,1.3C3.2,17.8,3.7,18,4.2,18c0.5,0,1-0.2,1.3-0.5
		C5.8,17.1,6,16.6,6,16.1c0-0.5-0.2-1-0.5-1.3c-0.3-0.3-0.8-0.5-1.3-0.5c-0.5,0-1,0.2-1.3,0.5C2.5,15.1,2.3,15.6,2.3,16.1L2.3,16.1z
		 M2.3,16.1"/>
	<path id="XMLID_1792_" class="st4" d="M4.6,20.5c0,1.4,0.6,2.8,1.6,3.9c1,1,2.4,1.6,3.9,1.6c1.4,0,2.8-0.6,3.9-1.6
		c1-1,1.6-2.4,1.6-3.9c0-1.4-0.6-2.8-1.6-3.9c-1-1-2.4-1.6-3.9-1.6c-1.4,0-2.8,0.6-3.9,1.6C5.1,17.7,4.6,19.1,4.6,20.5L4.6,20.5z
		 M4.6,20.5"/>
	<path id="XMLID_1789_" class="st5" d="M16.6,9c0,1.3,0.5,2.5,1.4,3.4c0.9,0.9,2.2,1.4,3.4,1.4c1.3,0,2.5-0.5,3.4-1.4
		c0.9-0.9,1.4-2.2,1.4-3.4c0-1.3-0.5-2.5-1.4-3.4c-0.9-0.9-2.2-1.4-3.4-1.4c-1.3,0-2.5,0.5-3.4,1.4C17.1,6.4,16.6,7.7,16.6,9L16.6,9
		z M16.6,9"/>
	<path id="XMLID_1786_" class="st6" d="M12.5,14.5c0,0.8,0.3,1.5,0.9,2.1c0.5,0.5,1.3,0.9,2.1,0.9c0.8,0,1.5-0.3,2.1-0.9
		c0.5-0.5,0.9-1.3,0.9-2.1s-0.3-1.5-0.9-2.1c-0.5-0.5-1.3-0.9-2.1-0.9c-0.8,0-1.5,0.3-2.1,0.9C12.8,12.9,12.5,13.7,12.5,14.5
		L12.5,14.5z M12.5,14.5"/>
</g>
</svg>
