<?xml version="1.0" encoding="utf-8"?>
<!-- Generator: Adobe Illustrator 19.0.0, SVG Export Plug-In . SVG Version: 6.00 Build 0)  -->
<svg version="1.1" id="图层_1" xmlns="http://www.w3.org/2000/svg" xmlns:xlink="http://www.w3.org/1999/xlink" x="0px" y="0px"
	 viewBox="-463 264 33 33" style="enable-background:new -463 264 33 33;" xml:space="preserve">
<style type="text/css">
	.st0{fill:#CCCCCC;}
	.st1{opacity:0.25;fill:#CCCCCC;}
	.st2{fill:#FFBE58;}
	.st3{fill:#5ABAE0;}
	.st4{fill:#FF6666;}
	.st5{fill:#FFCB33;}
	.st6{fill:#66CB33;}
</style>
<g>
	<g id="XMLID_14_">
		<path id="XMLID_98_" class="st0" d="M-436.3,269.3l-0.1-0.2l-0.1-0.2l-0.1-0.1l-0.1,0.1l-0.1,0.1l0,0h0h0l-0.2,0c0,0,0,0-0.1,0
			l0,0.1l-0.1,0.1l0,0l-0.1,0c0,0-0.1,0-0.2-0.1l0,0c-0.1-0.1-0.2-0.2-0.2-0.3v-0.2v0v0l0,0l-0.2-0.1l0,0.1c0,0,0,0.1-0.1,0.1
			l-0.1,0l0,0v0l-0.1,0l0,0.1l-0.2-0.1h0l0,0l0,0c0-0.1,0-0.2,0-0.2c0-0.1,0-0.1,0-0.1l0-0.1l0-0.1l-0.2,0c-0.1,0-0.2,0.1-0.2,0.2v0
			l0,0l-0.1,0.2l0.1,0h0l0,0l0,0l0.1,0h0l0,0v0l0,0.2l0,0.1v0v0v0l-0.2,0.5c0,0.1-0.1,0.2-0.1,0.5v0l-0.1,0.2l0.1,0.1v0
			c0,0.1,0,0.2,0,0.2l0,0c-0.1,0-0.2,0.2-0.5,0.5l0,0l0,0l0,0c-0.1-0.1-0.2-0.1-0.2-0.2c0,0-0.2-0.1-0.3-0.1l0,0.3l0,0l-0.1,0.6
			c0,0.1,0,0.2,0,0.4l0.1,0.1l0-0.1h0l0,0l0.2-0.1l0.5,0.1l0.1-0.1l0.1-0.1l0,0l0,0l0,0l0.2,0l0.2,0c0.1,0,0.2,0.1,0.3,0.3
			c0.3,0.1,0.5,0.3,0.5,0.4c0,0.1,0,0.1,0,0.2c0,0.1-0.1,0.1-0.1,0.1h0c-0.4,0-0.6,0-0.6,0l-0.2,0.1c-0.2,0.2-0.4,0.2-0.4,0.2
			l-0.1,0l-0.1,0.4c0,0.1-0.1,0.2-0.1,0.2c-0.1,0.1-0.1,0.1-0.3,0.1c-0.1,0-0.3,0.1-0.4,0.1l-0.1,0.3l0,0h0h0l-0.3,0.1h0l-0.2,0
			c-0.1,0-0.2-0.1-0.3-0.1c-0.1,0-0.2-0.1-0.3,0c-0.1,0.1-0.1,0.3-0.1,0.4c0,0.1,0,0.1,0.1,0.2l0.1,0l0.1,0l0,0.2
			c0,0.1,0,0.1-0.1,0.2c0,0-0.1,0.1-0.2,0.1l-0.1,0c-0.1,0-0.2,0.2-0.5,0.6v0h0l-0.2,0.1c0,0,0.1,0,0.1,0c0,0,0,0-0.1,0l-0.6,0
			c-0.7,0-1.2,0.2-1.6,0.6l0,0l0,0h0l-0.3,0l0,0h0l-0.1-0.2l-0.3,0.1c-0.1,0-0.3,0-0.5-0.1c-0.2-0.1-0.4-0.2-0.5-0.3
			c-0.1-0.1-0.2-0.1-0.4-0.2l-0.2,0l-0.3,0c-0.2,0-0.4,0-0.6,0c-0.2,0-0.5-0.1-0.8-0.2l0,0h0h0l0,0v0l0,0.1l0.1,0.1l0.2,0.2l0,0
			l0,0.1v0h0l-0.1,0.1l0.1,0.1c0,0,0.1,0.1,0.1,0.1l0,0.1l0.1,0.1v0l0,0.1v0.1l0.1,0.1l0,0l0,0c0-0.1,0.1-0.1,0.1-0.1l0.1,0l0.4,0
			l0.2-0.1l0,0l0,0l0.1,0.2h0l0,0c0,0,0,0.1,0,0.1l-0.2,0.3l0,0.1l0.1,0.1l0.1,0.1h0c0,0.1,0.1,0.1,0.1,0.1c0.1,0,0.1,0.1,0.1,0.1
			l0,0l0.1,0l0,0h0l0,0.1l0,0l0,0.1l0,0.1l0.2,0h0l0,0v0l0,0l0.1,0.1l0.1,0.1l0.1-0.1l0-0.1l-0.1-0.1l0,0v0l0.1-0.2h0.2l0,0l0.2,0.1
			l0.1,0l0.1-0.1c0.1-0.2,0.2-0.2,0.3-0.2l0.1,0c0.1,0,0.1,0,0.1,0c0,0,0,0,0,0c0,0,0,0.1,0.1,0.2v0v0l0,0.1v0l0,0.1l0,0v0l0,0
			l-0.1,0.1l0,0l0,0l-0.3,0.1l0,0.1l0,0.2l0,0.1l0.1,0.1l0,0l0.1,0.1h0.3l0.3,0l0,0c0,0,0.1-0.1,0.1-0.1l0.2,0l0,0
			c0-0.1,0-0.1,0-0.1l0.1-0.1v-0.2v0l0.1-0.4l0,0v0h0v0l0.2-0.2l0,0l0.2,0.1l0,0c0.1,0.1,0.2,0.1,0.2,0.2l0,0.2l-0.1,0.1l-0.1,0.1
			v0.2l0.1,0.1l0.1,0l0,0l0.1,0c0.1,0,0.1,0.1,0.1,0.2l0.1,0h0l0,0h0l0.2,0.1l0.1,0l0.2,0l0.1-0.1l0.1-0.4l0-0.2v0l0,0l0,0l0.1-0.1
			l0.1-0.1l0,0l0.1-0.1l0.1-0.1l0.1,0l-0.1-0.2l0.2,0l0,0v0l0,0l0.1,0.1l0,0v0l0-0.1v0l0,0h0l0.1,0h0.1l0.1-0.1h0l0,0h0l0.1,0
			l0.1-0.1l0.1-0.1v-0.1c0,0,0-0.1,0.1-0.1l0,0h0h0l0.1,0l0.1,0l0-0.1l0.1,0h0h0l0,0l0.2,0l0.1,0l0.1-0.1l0.1-0.1l-0.1-0.1v0l0,0
			l0-0.1l0,0l0-0.1v0l0.1-0.1c0,0,0-0.1,0.1-0.1l0.1-0.2v0h0l0.1-0.1l0.1-0.2l0.1,0.1l0,0v0l0,0.1v0l0,0.1l0.1,0h0l0,0l0,0l0,0l0,0
			l0.1-0.2l0.1-0.1l0,0l0,0l0.2,0.1l0.1-0.1l0,0h0l0.1,0l0.1-0.1v-0.2l0.1-0.2l0,0h0l0.2,0l0.1-0.1h0h0l0.1,0h0v0l0,0l0.1,0.1v0l0,0
			v0l0,0.1l0.1,0.1l0.1-0.1l0,0c0,0,0.1,0.1,0.1,0.1v0.1l-0.1,0.1l0,0.1l0.1,0.1l0.3,0l0,0l0,0l0,0l0,0l0,0l0.1-0.1h0l0.1-0.1l0-0.1
			l-0.1-0.5l0.2,0.1h0h0l0.1,0.1l0.1,0.1l0.1-0.1l0.3-0.3l0,0h0l0.1-0.1l0.1-0.2l0,0l0.2,0h0.1c0-0.1,0-0.1,0-0.1l0.1-0.1l0,0
			l0.1,0.1l0.2,0l0.1-0.1l0.1-0.1l0-0.1l-0.1,0.1l0,0l0,0l-0.1-0.1l0,0l0.1-0.2l0-0.1l0-0.1l-0.1,0v0l0,0l0,0l-0.1-0.2l0,0l-0.1,0.1
			l-0.1,0.1l0,0l0,0l0,0l-0.1-0.1v0l-0.1-0.2v0l0-0.1v0l0,0v-0.2l0-0.1l-0.1,0h0v0l-0.2-0.2l0,0l0.1-0.1v0v0h0l0,0l0.1,0h0
			c0,0,0.1,0,0.1,0.1l0.1,0.1l0.1-0.1l0.1-0.1v-0.1l0-0.2l0-0.1l-0.2,0v-0.1l-0.1-0.2l0,0l-0.1-0.1l0,0v0l0,0l0.2-0.2v0l0,0v0h0
			l0.1,0l0.1-0.1l0.1-0.3h0v0l0.1-0.1v0h0h0l0.1,0v0l0.1,0.1l0,0l0.1-0.2l-0.1-0.2l0,0v0l0-0.2v0l0.1-0.1l0.1-0.1l0-0.1
			c0,0,0-0.1-0.1-0.2l0,0l0,0v-0.2v0l0-0.2c0-0.1-0.1-0.1-0.1-0.2L-436.3,269.3z"/>
		<path id="XMLID_93_" class="st0" d="M-446.6,278.2h-0.1l0,0.1l0.1,0.1v0v0l0,0.1l0,0v0l0,0l-0.2,0.1l0,0l0,0h0h0
			c-0.1,0-0.2-0.1-0.2-0.1l0-0.1l-0.2,0l-0.1-0.3c0,0-0.1,0-0.1-0.1l0,0c0-0.1-0.1-0.1-0.1-0.1c-0.1,0-0.1-0.1-0.2-0.1l-0.1-0.1h0
			l0,0l0,0l-0.1-0.1l0,0l0-0.1v0l0.2-0.3c0,0,0,0,0,0l0-0.1l-0.1,0.1h0v0h0l-0.3,0l-0.1,0l0,0l0,0c0,0-0.1,0.1-0.1,0l0,0l0,0
			l-0.1-0.1l0-0.2c-0.1,0-0.1-0.1-0.1-0.1l0-0.2l-0.1-0.1l-0.1-0.1l0,0l0.1-0.2l0-0.1l-0.1-0.2h0v0l-0.1-0.1v0l0,0l0-0.1l-0.1-0.1v0
			l0,0l0,0l-0.1-0.1l-0.1,0l-0.1,0l0,0l0,0.2v0.2l0,0l-0.1,0.1l0,0v0l0,0l-0.1,0c-0.1,0-0.1,0.1-0.2,0.1l0,0l0,0h0l-0.2-0.1
			l-0.1,0.1c0,0-0.1,0.1-0.1,0.1l-0.2,0.1l-0.1,0.1v0l0,0c0,0.1-0.1,0.1-0.1,0.1l-0.1,0.1v0l0,0l-0.1,0c0,0-0.1,0-0.1,0l-0.2,0
			l0,0.1l-0.1,0.1l0,0.1l0,0.3l0.1,0.1v0l0,0.1h0.1l0.2,0l0.2,0l0.1,0h0h0l0.2,0.1l0,0h0l0.1,0.1l0.2,0.1h0l0.1,0.1l0.4,0.3l0.2,0.1
			l0.1,0l0.1-0.1l0-0.2c0-0.1,0-0.1,0.1-0.1l0,0l0.4,0.3l0.1,0l0.1-0.1h0l0.1,0l0.1-0.1l0,0l0,0l0.3,0.2l0,0l0.2,0.1
			c0,0,0.1,0.1,0.2,0.2l0.1,0.1l0.1,0l0.1-0.1l0.2,0.1h0h0l0,0l0.1,0.2l0.3,0.2l0,0l0.1,0.1l0.3-0.1l0,0.2l0.1,0.1l0,0v0l0.1,0.2v0
			v0v0l0.1,0.5l0.1,0.2l-0.1,0.4v0l-0.1,0v0.1l0,0l-0.1,0.2h0l-0.2,0l-0.2,0.1c0,0,0.1,0,0.1,0.1c0.1,0,0.1,0.1,0,0.2v0l-0.1,0.1h0
			l0,0h0h0l-0.4-0.1l0,0.1l0,0.3l0.3,0.1v0l0,0l0.1,0l0,0l0,0l0,0h0l0.1,0h0.1l0,0l0-0.1l0,0l0,0l0-0.1v0v0l0,0v0l0-0.1l0,0l0,0l0,0
			l0.1-0.1l0,0l0.1-0.1h0v0h0l0,0l0.2,0v0c0,0.1,0,0.1,0,0.1l0,0.1l0,0.1l0.1,0.1l0.4,0h0h0v0v0l0,0.1l0.1,0.1l0.1,0l0,0v0l0,0v0.1
			v0.1l0,0.1l0.1,0c0.1,0,0.1,0,0.2,0l0.2,0.1l0.1-0.1l0.1-0.1l0-0.1l0,0l0,0l0,0v0l0-0.2l0-0.1l0,0v0l0,0v0l0.1-0.1l0,0l0,0
			l0.1-0.1h0h0.2l0,0l0-0.1l0-0.1l-0.1-0.1l0,0v0v-0.2v0l0,0l0-0.1l0,0l0,0l0,0l0.2-0.3l0,0h0l0,0h0l0.1,0l0.2,0.1l0.1,0l0-0.1l0,0
			v0c0,0,0-0.1,0.1-0.1l0.1-0.1l0,0l0,0v0c0.1,0,0.1,0,0.1,0l0.1,0h0l0,0l0.1,0l0.1-0.2v-0.1c0-0.1,0-0.1,0-0.1l0.1-0.1l-0.1-0.1
			l-0.1-0.1l-0.2-0.1c0,0-0.1,0-0.2-0.1l-0.1-0.1h0l0,0l-0.1-0.2h-0.1l0,0h0l-0.1-0.1l-0.1,0.1l0,0.3l0,0.1h0.1l0,0l0.1,0v0v0
			l0.1,0.1h0v0l0,0v0l0,0.2v0v0l0,0c0,0-0.1,0-0.1,0.1l0,0l0,0h0l-0.1,0l-0.1,0h0l0,0l0,0l0,0.2c0,0,0,0,0,0.1h-0.1c0,0-0.1,0-0.1,0
			l-0.1-0.1l0,0h0v0l-0.1-0.1c0,0-0.1,0-0.1-0.1h0h0l-0.1-0.1h0v0l0,0l0-0.1l0-0.1h0v0l0,0l0-0.1v0l0-0.1l-0.1-0.1v0l0-0.3l-0.1-0.1
			h0l0,0l0,0l-0.1-0.1l-0.3,0c-0.1,0-0.1-0.1-0.1-0.1h-0.1c0,0-0.1,0-0.1-0.1l0,0c0,0-0.1-0.1-0.1-0.1l0,0l0,0l0-0.1l0,0v0v0l0,0
			l0-0.2v0l0-0.1v0v0h0l0.3-0.1l0.1-0.1l0-0.1l0-0.1c0-0.1-0.1-0.2-0.1-0.2l-0.1,0l-0.1,0c0,0-0.1,0.1-0.2,0.2l-0.1,0.1h0l0,0
			c-0.1,0-0.2,0-0.2,0L-446.6,278.2z"/>
		<path id="XMLID_90_" class="st0" d="M-444.6,278.3l-0.1,0.4v0.2v0l-0.1,0.1l0,0.1c0,0.1,0,0.1-0.1,0.1l0,0h0l0,0l-0.2,0l-0.1,0.1
			l-0.3,0l0,0h-0.1l0.1,0.1l0.3,0h0h0l0,0v0l0.1,0.2l0.1,0.1c0,0,0,0.1,0,0.2l0,0.2l0.1,0.1h0v0h0l0,0.1v0.1l-0.1,0.1l0,0.1l0,0.1
			l0.1,0.1c0.1,0,0.1,0.1,0.2,0.1l0.1,0.1c0.1,0,0.1,0.1,0.1,0.1l0.1,0h0l0-0.2c0,0,0-0.1,0-0.1c0,0,0,0,0.1,0l0.1,0l0,0l0,0h0l0,0
			l0.1,0l0.1,0v0l0-0.2l0-0.1l-0.1,0l-0.1,0h0l0,0l0-0.2l0-0.4l0,0l0.1-0.2l0.2,0.1h0.1l0.1-0.5c0-0.1,0-0.1-0.1-0.1l0,0v0h0l-0.1,0
			l0,0l0,0l-0.1-0.1v0l0,0v-0.2l0-0.1l0,0c0,0,0-0.1,0-0.1l0,0l0-0.1l-0.1-0.1l-0.1-0.1L-444.6,278.3z"/>
		<path id="XMLID_88_" class="st0" d="M-449.6,275.6L-449.6,275.6L-449.6,275.6L-449.6,275.6l-0.2-0.7l-0.1-0.1v0l0-0.3l-0.3,0h0h0
			v0l0,0v0c0-0.1-0.1-0.2-0.3-0.3c-0.1-0.1-0.2-0.1-0.2-0.1c-0.1,0-0.1-0.1-0.1-0.1c-0.1-0.1-0.4-0.1-1-0.1h0l0,0l-0.1-0.1
			c0-0.1-0.1-0.1-0.1-0.2c0-0.1,0.1-0.3,0.3-0.8l-0.1-0.3l0,0l-0.1-0.5c0-0.1-0.1-0.1-0.4-0.2c0,0-0.1,0-0.1-0.1
			c-0.1,0-0.1-0.1-0.2-0.2c0-0.1-0.1-0.2-0.2-0.2l0,0l0,0l-0.1-0.5l-0.4,0l0,0.1c0,0.2-0.1,0.2-0.1,0.2l-0.2,0.1
			c-0.1,0.1-0.2,0.1-0.3,0.2c0,0,0,0.1-0.1,0.2c0,0.1,0,0.2-0.1,0.3c0,0.1-0.1,0.2-0.2,0.2c-0.2,0.1-0.5-0.1-1-0.4l-0.6,0.8l0.1,0.3
			h0l0,0l0,0v0c0,0-0.1,0.1-0.1,0.1c-0.1,0-0.1,0-0.2-0.1c-0.1,0-0.2-0.1-0.5-0.1l-0.1,0l0,0l-0.2,0l-0.2,0l0.1,0.1
			c0.1,0.1,0.1,0.2,0.1,0.2l-0.1,0.5l0,0.3h0v0l0,0l0,0l-0.1,0.5c0,0,0,0.1,0,0.1h0v0l0,0c0-0.1,0-0.1-0.1-0.1c0,0,0,0,0,0.1
			c0,0.1-0.1,0.2-0.2,0.4l-0.1,0.1l-0.1,0l0,0h0l-0.5,0l-0.2,0.2h0h0h0l-0.5-0.1c-0.1,0.1-0.2,0.1-0.2,0.1c-0.1,0-0.2,0-0.4,0.1
			l-0.2,0.2l0,0l-0.3,0v-0.3h-0.2l0,0.1l-0.2,0h0l0,0l0,0h0c-0.1-0.1-0.2-0.1-0.3-0.1c-0.1,0-0.1,0-0.3,0.1
			c-0.1,0.1-0.2,0.2-0.3,0.3c0,0,0,0,0,0.1c0,0.1,0,0.1,0,0.2c0,0.1,0,0.1-0.1,0.1c0,0-0.1,0.1-0.1,0.2l0.1,0.1l0.2-0.2l0.2,0.2v0
			l0,0.4v0h0l-0.1,0.6h0c-0.2,0-0.3,0-0.3,0c0,0,0.1,0.1,0.2,0.2l0.1,0h0l0,0l0.2,0.2c0.1,0.1,0.1,0.2,0,0.4l0,0.2l0.1,0h0.4
			l-0.2,0.2l0.1,0.1l0,0l0.1,0.1l0.4,0.2l0,0h0l0,0.6c0,0.1,0.1,0.2,0.3,0.3l0,0h0h0l0.4,0.1h0v0l0,0c0-0.1,0.1-0.1,0.1-0.2v0
			c0-0.1,0-0.1,0.1-0.2c0.1,0,0.1-0.1,0.1-0.1l0,0c0-0.1,0.1-0.1,0.2,0h0l0,0l0.1,0.1l0.5,0.1l0.3,0l0.2-0.1c0-0.1,0.1-0.1,0.1-0.1
			c0,0,0.1,0,0.1,0.1l0,0c0,0,0.1,0.1,0.1,0.1l0.1,0.1h0.1h0h0h0l0.2,0.1l0.3,0l0.2-0.1l0.4,0l0.2-0.1l0.2-0.1c0,0,0.1-0.1,0.2-0.1
			h0.4l0.1-0.1c0.1,0,0.1-0.1,0.2-0.1h0.2l0.1,0.1l0.3,0.1c0,0,0.1,0,0.2,0.1l0.1,0.1l0,0l0.3,0l0,0h0l0.1,0.1l0.2,0h0l0.2,0l0-0.1
			l-0.1-0.1l0-0.1v0h0l0,0l0.1-0.1v0l0,0h0v0l0.1-0.1l0,0l0,0l0-0.1c0,0,0,0-0.1-0.1l0,0l-0.1-0.1l-0.1-0.1l0,0l0,0l0,0v0l0-0.1
			v-0.1l-0.1-0.2l0.2,0l0.1-0.1h0.2l0.2,0h0l0.1,0l0.2-0.1l0.2,0l0.1-0.1h0l0.3-0.1l0.1-0.1l0-0.1l-0.1-0.1v0l0,0v0l0-0.1l0,0v-0.2
			l0-0.1l0,0v0l0.1-0.1c0-0.1,0.1-0.1,0.1-0.1l0.2,0c0,0,0.1,0,0.1,0l0.3-0.4v0l0,0l0.2-0.1l0,0c0.1,0,0.1,0,0.1-0.1l0,0
			c0.1-0.1,0.1-0.1,0.1-0.1l0.2,0.1l0.2-0.1l0,0h0l0,0h0l0.1,0l0.1,0v-0.2L-449.6,275.6L-449.6,275.6L-449.6,275.6L-449.6,275.6
			L-449.6,275.6L-449.6,275.6z"/>
		<path id="XMLID_86_" class="st0" d="M-449.4,278.1L-449.4,278.1c-0.1,0.1-0.1,0.1,0,0.2v0l0,0h0l-0.1,0.2l-0.1,0l0,0h0l-0.2-0.1h0
			v0l-0.4-0.3l-0.1-0.1l-0.2-0.1v0l0,0h0l0,0l-0.1-0.1l-0.2-0.1l-0.1,0h0l-0.2,0h0l-0.2,0h-0.1l-0.1,0.1c0,0-0.1,0-0.2,0l-0.2,0
			l-0.1,0l0,0v0v0l-0.2,0l-0.2,0.1l0,0h0l-0.1,0l-0.2,0h-0.2l-0.1,0.1h0l-0.1,0l0,0.1v0.1l0,0.1l0.1,0.1h0l0,0l0,0l0.1,0.1
			c0.1,0.1,0.1,0.1,0.1,0.1l0,0.1l0.1,0.1c0,0,0,0,0,0l-0.1,0.1l-0.1,0.1l0,0.1l0.1,0.2l0,0l0,0v0l0,0.1c0,0,0,0.1-0.1,0.1
			c0,0-0.1,0-0.2,0l-0.2,0h0l0,0h0l-0.1-0.1l-0.2,0l0,0l0,0.4c0,0.1,0,0.1-0.1,0.1c0,0,0,0,0,0.1v0h0l0,0.1c0.1,0,0.1,0.1,0.1,0.1
			l0,0.2v0.1c0,0,0,0.1,0,0.1l-0.1,0.1l-0.1,0.2v0l0,0.1l0.1,0.1c0,0,0,0.1,0.1,0.1l0.1,0.1l0.1,0.1c0.1,0.1,0.1,0.1,0.1,0.1
			l0.1-0.1c0,0,0.1,0,0.1,0c0,0,0.1,0,0.1,0.1l0,0h0v0l0.1,0.1l0,0.1l0,0l0,0l0.1,0.1l0.1,0c0,0,0.1,0,0.1,0.1c0,0,0.1,0.1,0.2,0.1
			h0l0.2,0.1h0h0l0.2,0.1l0.3,0.1l0,0l0.3,0l0.2-0.1h0.1v0l0,0l0.1,0.1l0,0v0l0.1,0.1l0.1,0.1l0.1,0l0,0l0,0l0,0l0.1,0.1v0h0v0
			l0,0.2l0.1,0h0h0l0,0l0.1,0.1l0.1,0l0-0.1v0l0,0l0.1-0.1l0.1,0v0l0.1,0.1l0.1-0.1l0-0.1v0v0l0,0l0.1-0.1l0-0.2v0v0l0,0l0.1-0.2
			l0.1,0l0-0.2h0.1l0-0.1l-0.1-0.2l0,0v0l0-0.1v0l0,0l0.1-0.1l0,0h0l0.2,0h0l0.2,0l0.1,0l0.1,0.2l0,0v0.1l0,0.1c0,0,0,0.1,0.1,0.1h0
			c0.1,0,0.1,0,0.1,0.1c0,0,0,0.1,0.1,0.1l0.1,0.1l0,0v0l0,0.1l0.1,0l0.1-0.1l0.1,0.2l0.2,0.1h0l0,0l0.1,0.1l0,0l0-0.1v0v0l0.3,0
			l0,0c0,0,0,0,0-0.1c0,0,0-0.1,0-0.1c0-0.1,0-0.1,0-0.1c0,0,0,0,0.1,0l0.1,0l0-0.1l-0.2-0.1h0l0,0v0v0l0-0.3l0-0.2v0v0l0.4,0.1
			l0.1-0.1c0,0,0-0.1,0-0.1c-0.1,0-0.2-0.1-0.2-0.1c0,0,0-0.1,0-0.1l0.2-0.2l0.2,0l0.1-0.2v-0.2l0.1,0c0-0.1,0.1-0.2,0.1-0.2
			l0.1-0.1l-0.1-0.2v0l0,0v0l-0.1-0.2v0l0-0.3l-0.1-0.1l-0.1-0.1v0v0l0,0l0-0.1l-0.2,0.1l0,0l-0.1-0.1l-0.3-0.2h0l-0.1-0.2l-0.1-0.1
			l-0.1,0.1v0l0,0h0h0l-0.1,0l0,0h0l-0.2-0.3c-0.1,0-0.1-0.1-0.2-0.1l-0.1-0.1l0,0l-0.1-0.1l-0.1,0.1l0,0l0,0h0l-0.1,0l-0.1,0l0,0
			l0,0h0l-0.1,0C-449.1,278.3-449.2,278.2-449.4,278.1z"/>
		<path id="XMLID_84_" class="st0" d="M-449,281.7l-0.2-0.1l-0.2,0l-0.1,0.1l0,0.1l0,0l0.1,0.2l0,0.1v0h-0.1l0,0.2l-0.1,0.1
			l-0.1,0.1l0.1,0.1l0,0l0,0l0.3,0.2l0,0h0v0v0l0,0.2l0.1,0.2c0,0,0.1,0.1,0.1,0.1h0l0,0v0l0,0v0.2c0,0,0,0.1,0,0.3
			c0.1,0.1,0.1,0.2,0.1,0.2c0,0,0,0.1,0.1,0.2l0,0v0l0,0c0,0.1,0,0.2,0,0.3c0,0.1,0,0.1,0.1,0.3l0,0l0,0l0,0l-0.1,0.3
			c0,0.1,0,0.1,0,0.1l0,0.2c0,0.1,0,0.1,0,0.1l0,0c0.1,0,0.1,0.1,0.1,0.1l0,0.1l0,0l0,0l0,0c0,0,0-0.1,0.1-0.1l0,0l0,0
			c0,0,0,0,0.1-0.1c0,0,0-0.1,0-0.1l0,0l0,0c0.1,0,0.2,0,0.2,0l0.1,0.1v0v0l0,0.2l0.1,0.1h0h0l0.1,0.1l0.1-0.1l0.1-0.1h0
			c0.1,0,0.1,0.1,0.1,0.1l0,0.2l0,0l0.2,0.4l0.1,0.1l0,0v0l0,0.2l0,0l0,0.2l0,0c0.1-0.1,0.1-0.1,0.1-0.1c0,0,0,0,0,0.1v0v0.1v0
			c0,0,0.1,0,0.1,0l0.1-0.1l0.1-0.1c0.1,0,0.1-0.1,0.2-0.1h0l0.2,0l0,0l0.1-0.1l0-0.2c-0.1-0.1-0.1-0.2-0.1-0.2l0-0.1v0l0,0l0,0
			l0.1-0.1h0l0,0l0.1-0.1l0.1-0.2l0-0.1l-0.1-0.3l0.3,0.1v-0.1l0,0v0l0.1-0.1l0.2-0.1h0l0.1,0.3v0l0,0.1l0,0.1c0,0,0,0.1,0.1,0.1
			c0,0,0.1,0,0.1-0.1l0,0l0,0h0l0.2-0.1l0,0h0c0.1,0,0.1,0,0.2,0.1l0,0.2v0l0,0l0.1,0l0.1,0l0.2-0.1l0.1-0.1l0-0.1l-0.1-0.1
			l-0.2-0.1l0,0l0,0l0,0v0l-0.2-0.2l0,0l0.1-0.1l0,0l0,0l0.1,0l0,0h0l0.1,0h0l0,0v-0.1l-0.1-0.1l-0.1-0.1l-0.1-0.2l0,0l0,0v0
			l-0.1-0.2v-0.2l0.1-0.1h0.2l0.4,0l0.2-0.3v0h0l0.2-0.1l0.1-0.2l0,0l0.2-0.2l0.1-0.2v0h0v0l0,0l0.1-0.1l0.1-0.1l0-0.2v0l0,0
			l0.1-0.1l0,0l-0.2,0l-0.3,0l0,0l-0.1-0.1h0v0l0,0l-0.1-0.1l0,0l0,0c0,0-0.1,0-0.1,0l0,0c0,0,0,0,0,0c0,0,0,0,0-0.1
			c0,0,0-0.1-0.1-0.1l0,0v0h0l0-0.1h0l-0.1,0.1l0,0h0l-0.3,0.1h0l0,0l-0.2-0.1l0,0l0,0v0h0l0-0.1l-0.1,0.1c-0.1,0.1-0.2,0.1-0.2,0.1
			l-0.2-0.1l-0.1,0l0,0l-0.1-0.1l0,0l0,0l0.1-0.2v-0.1l-0.1,0h0l-0.2-0.2l0-0.1l-0.4,0l-0.1-0.1c0,0-0.1-0.1-0.1-0.1l0-0.1l0-0.1
			l-0.1,0l-0.1,0.1l-0.1,0.2l0,0.1l0,0.2v0h0l0,0v0c0,0-0.1,0.1-0.1,0.1h-0.1l-0.1,0l-0.1,0l0,0l0,0l0,0.1l0,0v0h0l-0.2-0.1
			c0,0.1,0,0.1,0,0.2c0,0.1,0,0.1,0,0.1l0,0.1c0,0-0.1,0-0.2,0h-0.1l0,0.2l-0.2-0.1h0l0,0l-0.1-0.2l-0.2-0.1l0-0.1l-0.1,0.1h0
			l-0.1,0h0l-0.1-0.1l-0.1-0.1l0,0c-0.1-0.1-0.1-0.1-0.1-0.2c0,0,0,0-0.1,0l0,0c-0.1,0-0.1-0.1-0.1-0.1l0-0.1v-0.1l-0.1-0.1
			L-449,281.7L-449,281.7L-449,281.7L-449,281.7z"/>
		<path id="XMLID_82_" class="st0" d="M-458.8,279.3L-458.8,279.3c0,0.1-0.1,0.1-0.1,0.2c0,0-0.1,0.1-0.1,0.1v0c0,0,0,0.1-0.1,0.2
			l0,0c0,0,0,0-0.1,0l-0.4-0.1v0l0,0.1v0l0,0l0,0c-0.1,0.2-0.2,0.3-0.2,0.3c0,0,0,0.2,0.1,0.4l0.1,0.2c0,0.1,0,0.2-0.1,0.3l-0.1,0.1
			h-0.2l0-0.2l-0.1,0.3l0.1,0.1c0,0,0,0,0,0l0,0c0,0-0.1,0.1-0.1,0.2c0,0.1,0,0.2,0.1,0.3h0.2c0.1,0,0.1,0.1,0.3,0.3l0,0l0,0
			c0,0.1,0,0.1,0.1,0.1l0.4,0.4v0l0.2,0.2h0.1l0.1-0.2l0,0l0,0l0.3,0.1v0v0l0,0.2l0.3,0.4l0.1,0l0,0l0.1,0l0,0l0.2,0.4l0.2,0h0h0
			l0,0l0,0l0.2,0.4l0.2,0.1l0.2,0l0.1,0.2h0.1l0,0l0,0l0.3,0.1v0l0,0l0,0l0.2,0.2l0.3-0.1h0l0.1,0h0l0.2,0.2l0.3,0l0.2,0l0,0
			c0.3,0,0.4,0,0.5,0c0,0.1,0,0.1-0.1,0.2l-0.1,0.1c0,0,0,0.1,0.1,0.2l0,0h0l0.1,0l0,0c0.2-0.3,0.3-0.5,0.4-0.6
			c0.1,0,0.3,0.1,0.7,0.3l0.4,0.1l0,0v0l0,0.2l0.2,0l0,0.3c0.1,0.1,0.1,0.2,0.1,0.2c0,0,0.3,0,0.7,0l0.2-0.1l0.2-0.3l0.3,0l0.1,0
			l0.5-0.3h0l0,0l0,0c0.3,0,0.4,0,0.5,0l0.3,0.3l0.1,0l0,0l0.1,0.1l0,0v0v0v0v0l0.1-0.2c0-0.1,0-0.1,0-0.2c0,0,0.1-0.1,0.1-0.1
			c0.1,0,0.2,0.1,0.3,0.3l0,0h0l0.2-0.1c0,0,0.1,0,0.1-0.1l0-0.1v0c0-0.1,0-0.1,0.1-0.1l0.1-0.1l0.2-0.2l0.1-0.2
			c-0.1-0.2-0.1-0.3-0.1-0.3l0-0.2c0-0.1-0.1-0.1-0.1-0.2c0,0,0-0.1-0.1-0.2h0v0l0-0.3c0,0,0-0.1,0-0.2c-0.1-0.1-0.1-0.1-0.1-0.2
			l-0.1-0.1l0,0v0v0l0-0.2l-0.1-0.1v0l-0.2-0.2v0l0,0.2v0v0l-0.1,0.1l0,0.1v0l-0.3,0.1l-0.1-0.2l-0.1,0l-0.1,0.1l-0.1,0.1l-0.2,0.1
			l-0.1-0.1l-0.1,0l0-0.2l-0.1-0.1l-0.1,0l0,0l-0.1-0.1l0,0l-0.1-0.1l-0.1-0.1h-0.1l-0.1,0.1l0,0l-0.4,0l-0.3-0.1c0,0-0.1,0-0.2-0.1
			l-0.2-0.1c-0.2,0-0.3-0.1-0.3-0.1l0,0l-0.1,0l-0.1-0.1l0,0c0,0,0-0.1-0.1-0.1l0-0.1l-0.1-0.1l-0.1,0l0,0l0,0l0,0
			c0,0-0.1,0-0.1,0.1c-0.1,0-0.1,0-0.2-0.1l-0.1-0.1c-0.1-0.1-0.1-0.1-0.1-0.2l0-0.1c-0.1-0.1-0.1-0.1-0.1-0.1c0-0.1,0-0.1,0-0.2v0
			l0,0l0.1-0.2l0.1-0.2l0-0.1l0-0.2l-0.1-0.1l0-0.1c0-0.1,0-0.2,0.1-0.2c0,0,0,0,0-0.1v0l0-0.1v0l0,0v-0.2h0l0,0l0,0l0,0l0,0v0h0
			l-0.1-0.1l0,0h0l-0.1-0.1l-0.3-0.1l0,0l-0.1-0.1h-0.2c0,0-0.1,0-0.1,0.1h0l-0.2,0.1h-0.4c-0.1,0-0.1,0-0.1,0.1
			c0,0-0.1,0.1-0.2,0.1l-0.2,0v0h0l-0.3,0l0,0l0,0l0,0l-0.1,0l-0.2,0.1l-0.3,0h0l0,0l-0.2-0.1h-0.1c-0.1,0-0.1-0.1-0.2-0.1l0,0
			c0-0.1,0-0.1,0-0.1l0,0l-0.1,0l-0.1,0.1l0,0l-0.2,0.1h0h0l-0.3,0c0,0-0.1,0-0.2-0.1l-0.2,0h0l0,0l-0.1-0.1H-458.8z"/>
		<path id="XMLID_80_" class="st0" d="M-449.7,288.4L-449.7,288.4c0,0.1,0.1,0.1,0.1,0l0,0h0l0.3,0l0.2-0.1l0.1,0.1l0,0l-0.1,0.1
			l0.1,0.1v0v0l-0.1,0.3l0.2,0.1l0.3,0l-0.1,0.1c-0.2,0.3-0.3,0.4-0.3,0.5l0.1,0c0.2,0,0.3,0.1,0.3,0.1c0,0.1,0.1,0.2,0.1,0.3
			l0.2,0.1l0.1,0l0.3-0.2l0.1,0.2v0l0,0l0,0l0,0.2l0.1,0l0,0l0.2,0.1l0,0v0l0-0.2l0,0l-0.1-0.4v0l0.1-0.3l0,0h0l0.2,0l0.2-0.2l0,0
			c0.1,0.1,0.2,0.2,0.3,0.2c0,0,0.1-0.1,0.2-0.2l0,0l0,0l0.4,0.1l0.2-0.1l0,0l0,0h0l0,0l0.2,0l0.5-0.4l0.2,0l0,0l0,0l0,0l0,0l0,0.1
			l0,0h0v0h0l0.1-0.1l0.1-0.1l0-0.2l0,0l-0.1,0.1l0,0c0,0-0.1,0-0.1,0h-0.2c-0.1,0-0.1,0-0.1-0.1l0-0.2c-0.1,0-0.1,0-0.1,0l0,0
			l-0.1,0l-0.1,0h0l0,0l-0.1-0.1l0-0.1l0,0l0.1-0.3l0,0h0v0l0.1-0.1l-0.2-0.2l0,0l0,0v-0.2l0,0l0.1-0.3l-0.1-0.2l-0.1,0l-0.1,0
			l-0.1,0.1l-0.1-0.1l-0.1-0.1l-0.1-0.2l0,0l0,0l0-0.1v0l0,0l0,0l0.1-0.1l0,0l0,0h0l0.1,0l0.1,0l0.4,0h0l0.1,0l0,0l0.1,0l0.1,0
			l0.1-0.1l0-0.1l0,0l0-0.2l-0.1,0l-0.2,0.1c0,0.1-0.1,0.1-0.1,0.1s-0.1,0-0.1-0.1l0,0h0v0l0-0.1v0l0-0.1l-0.1-0.2l-0.2,0l-0.1,0.1
			l0,0.2l-0.2-0.1l0.1,0.1l0,0v0l0,0.1v0h0l-0.1,0.2l0,0l-0.2,0.1l0,0.1c0,0,0,0.1,0.1,0.2l0,0v0l0,0.2v0l0,0l-0.1,0.1l0,0l0,0h0
			l-0.1,0h0h0h0h0l-0.2,0c0,0-0.1,0-0.1,0l-0.1,0.1l-0.1,0.1c0,0.1-0.1,0.1-0.2,0.1c-0.1,0-0.1-0.1-0.1-0.1v-0.1l0-0.1l0,0
			c0,0,0,0-0.1,0c0,0-0.1,0-0.1-0.1v0l0-0.2l0-0.2l-0.1-0.1l0,0l0,0l-0.2-0.4l0,0l0-0.1v0h0v0l0-0.2l0,0l0,0
			c-0.1,0.1-0.1,0.1-0.1,0.1c0,0-0.1,0-0.1-0.1l-0.1-0.1l0,0l0,0v0l0,0l0-0.1l0,0l0-0.1l-0.1-0.1h-0.1c0,0.1,0,0.1,0,0.1
			c0,0,0,0.1-0.1,0.1c0,0.1,0,0.1-0.1,0.1c0,0-0.1,0-0.1,0l0,0c0,0-0.1-0.1,0-0.2v0l-0.1-0.1c0,0-0.1-0.1-0.1-0.1l0-0.3l0-0.1
			l-0.1,0.1l-0.1,0.1l0,0.1c0,0.1,0,0.1,0,0.2c0,0.1,0,0.1-0.1,0.2l-0.1,0.1l0,0l0,0.1v0.2c0,0.1,0,0.1,0,0.1c0,0,0.1,0,0.1,0l0,0
			l0.1,0.3v0l0,0v0c-0.1,0.6-0.1,0.9-0.2,1c0,0-0.1,0-0.1,0.1c-0.1,0-0.1,0-0.1,0c-0.2,0.4-0.3,0.6-0.4,0.6h0c0,0,0,0.1,0,0.3l0,0
			L-449.7,288.4L-449.7,288.4L-449.7,288.4z"/>
		<path id="XMLID_78_" class="st0" d="M-443.3,285.1L-443.3,285.1l-0.1,0l0,0.1c0,0.1-0.1,0.1-0.1,0.1c0,0-0.1,0-0.1,0l0,0l0,0l0,0
			l0-0.1v0l0-0.1l0,0l0,0l0,0.1v0.1l0,0l0,0l-0.1,0.1l0,0h0l-0.2,0h0v0l0,0v0l-0.1,0.1l0,0.1h0l-0.1,0.1h-0.2v0l0,0l0,0l0,0.1l0,0
			h-0.1l0,0l-0.1-0.1l0,0v0h0v0l-0.1,0l-0.1,0l-0.1,0l0.1,0.2l0.2,0.1l0,0l0,0l0,0l0.1,0.1l0,0.1l0,0v0h0l-0.1,0.1v0h0l-0.2,0.1h0
			l-0.1,0l0,0h0l0,0h0l-0.1,0l0,0l0,0.1h0v0l-0.1,0.1h0l0,0l-0.1,0.1h0l-0.2-0.1l-0.3,0l-0.1,0l0,0h-0.1l-0.1,0.1l0,0.1l0.1,0.2
			l0.1,0h0v0l0,0l0.1-0.1l0,0l0,0h0l0.1,0h0v0l0.1,0l0.1,0.2h0v0l0,0.1l0,0l0,0.1v0l-0.1,0.1v0.2l0.1,0.1h0l0.1,0.1l0,0l0,0
			l-0.1,0.2l0,0.1l0,0h0l0.1,0l0.1-0.1h0l0.1,0h0l0,0l0.2,0.1h0.2l0.1-0.1l0,0l0,0l0.1-0.1l0.1-0.1l0,0l0,0l0.1,0l0.1-0.1l0.1-0.1
			l0.2,0.1l0,0v0l0,0c0,0.1,0,0.1,0.1,0.1l0.1,0h0l0.1,0h0v0l0.1,0h0l0,0l0,0v0l0,0l0,0v0l0,0l0,0l0.1-0.1h0l0,0h0l0.1,0
			c0,0,0-0.1,0.1-0.1c0.1,0,0.1-0.1,0.1-0.1l0,0h0v0l0,0v0h0l0,0h0l0.1,0h0.1l0,0l0,0l0,0l0-0.1l0,0c0-0.1-0.1-0.1-0.1-0.2l0,0l0,0
			h0v0l0-0.2c0-0.1,0-0.1,0.1-0.1l0-0.1c0,0,0,0-0.1,0l-0.2,0.1l0-0.2c0,0,0.1-0.1,0.2-0.2l-0.1-0.3c0-0.1,0-0.2,0.1-0.2l0,0h-0.1
			l0,0l0,0.1c0,0-0.1,0.1-0.1,0.1h0l-0.1-0.1h0h0v0v0l0-0.1l0-0.1v0l0,0l0,0h-0.1l0,0l0-0.1v-0.1l-0.1-0.1L-443.3,285.1
			L-443.3,285.1z"/>
		<path id="XMLID_76_" class="st0" d="M-441.8,287L-441.8,287L-441.8,287l-0.1,0.2c0,0-0.1,0.1-0.1,0.1h0l-0.1,0l-0.1,0l-0.1,0.1
			c0,0-0.1,0-0.1-0.1l0,0.1h0l0,0l0,0l0,0l-0.1,0.1h-0.1l-0.1,0l-0.1,0.1h0l0,0c0,0-0.1,0.1,0,0.1l0.1,0.1l-0.2,0l-0.1,0.1l0,0v0
			l0,0.1l0,0l0,0h-0.1l-0.1-0.1l0,0l-0.1,0c0,0-0.1-0.1-0.1-0.1l-0.1,0l-0.1,0.1l0,0h0l-0.1,0.1h0v0h0l-0.1,0l-0.1,0.1l0,0l-0.1,0.1
			l-0.1,0.1h-0.3l0,0l-0.2-0.1l-0.1,0l-0.1,0.1h0l0,0l-0.1,0c0,0-0.1,0-0.1,0l0,0v0.1l0,0.1l0.2-0.1c0,0,0.1,0,0.2,0.1l0,0l0,0
			l0,0.2l0,0h0.2l0.1,0l0,0c0.1,0,0.1-0.1,0.2-0.1l0,0l0,0l0,0.1v0l0,0.2v0l-0.1,0.1h0v0l-0.2,0.1l-0.1,0.1l0,0l0.3,0l0,0l0,0l0,0
			l0.1,0.1l0.3,0v0l0,0.1v0h0l-0.1,0.1c0,0.2,0,0.3,0.1,0.3l0.2,0.1l0.2,0.1l0.2-0.1l0,0l0,0l0,0l0.2,0.2l0,0l0.1-0.1l0,0l0,0h0h0
			l0.1,0l0-0.2l0.2,0.3l0.1,0l0,0h0v0v0.1l0.1,0l0.2-0.3l0.1,0.2v-0.1l0,0v0v0l0.1-0.1l0.1-0.1h0.2l0-0.2h0l0,0l0.1,0l0-0.1
			l-0.1-0.1v0l0-0.1v0l0,0h0v0l0.4-0.2l0-0.2l0,0v0l0.1-0.1l0,0l0,0l0.1-0.3l0,0l0,0l0.1-0.1l0.1-0.1v0l0,0l0.1-0.1l0-0.1v0h0V288
			h-0.1l-0.1,0.1c-0.1,0-0.1,0-0.2,0c0,0,0-0.1,0-0.2l-0.1,0l0,0c-0.1,0.1-0.1,0.1-0.1,0.1c0,0,0,0,0,0c0,0,0-0.1,0-0.1
			c0-0.1,0-0.1,0-0.1c0,0,0,0,0,0l0.1-0.3l0-0.1l0-0.1l-0.1-0.1c0,0,0-0.1,0-0.1v0c0,0,0-0.1,0-0.1h0l0,0c0,0.1-0.1,0.1-0.2,0.1
			C-441.7,287-441.7,287-441.8,287L-441.8,287z"/>
		<path id="XMLID_74_" class="st0" d="M-442.2,283.6l-0.1-0.1l-0.1-0.1l-0.1,0h0v0h0l-0.1,0l0,0h0l0,0l-0.1,0h0l0,0l-0.1,0v0h0v0
			l0,0l-0.1-0.1l-0.1-0.1l-0.1,0l-0.1,0.1l-0.1,0.1l0,0.2v0l0,0l-0.1,0.2v0h0l-0.1,0.1l-0.1,0.2l0,0l0,0c-0.1,0.1-0.1,0.1-0.2,0.1
			l-0.1,0.1c0,0-0.1,0.1-0.2,0.1l-0.1,0.1l0,0l-0.1,0.2h0v0h0l-0.6,0l-0.1,0.1v0.1l0.1,0.2l0.1,0.2l0.1,0.1v0h0l0,0
			c0.1,0.1,0.1,0.1,0.1,0.2v0.1l0,0l0,0h0l0-0.1h0l0.1,0l0,0h0.1l0,0l0,0l0,0l0.1-0.1c0,0,0.1-0.1,0.1,0l0.1,0l0.1-0.1v-0.1l0-0.1v0
			l0,0l0,0l0.1,0v0h0l0,0l0.1,0v0l0,0.1v0l0,0.1l0,0l0-0.1v0l0.1-0.1l0,0l0.1,0h0l0,0l0.1,0h0l0,0l0.1,0.1v0.1l0.1,0.1l0,0v0v0.1
			l0,0h0l0,0l0,0l0.1,0.1h0h0v0v0l0,0.1l0,0l0,0l0-0.1v0l0,0h0h0l0.1,0h0v0h0.1l0,0v0l0-0.3l-0.1-0.2l-0.3-0.3l0,0l0-0.2l-0.1-0.2v0
			l0,0l0,0l0,0l0-0.2h0h0l0.5,0l0.2-0.1l0,0l0,0c0.1,0,0.1-0.1,0.2-0.1C-442.2,283.7-442.2,283.7-442.2,283.6z"/>
		<path id="XMLID_72_" class="st0" d="M-443.8,279.1L-443.8,279.1l-0.1,0.4l0.1,0.1l0.1,0.1l0,0h0l0,0l0.2,0.1l0.2,0.1h0l0.1,0.1h0
			l0,0v0l0.1,0.1l0,0l0,0l-0.1,0.1c0,0,0,0.1,0,0.1h0v0.1l0,0l0,0l-0.1,0.2l0,0h0l0,0l-0.1,0l-0.1,0l-0.1,0l-0.1,0.1l0,0l0.2,0.1
			l0,0c0,0,0,0.1-0.1,0.1l-0.1,0l-0.2-0.1l0,0l0,0l-0.2-0.1h-0.1l-0.2,0.3l0,0.1v0.2l0.1,0.1v0l0,0l0,0l0,0.1v0l0,0.2v0l0,0l-0.1,0
			h-0.2l-0.1,0.1l0,0.1l0,0l0,0.2h0v0.1l0.1,0.1l0.2,0.1l0.2-0.1l0.1-0.1l0,0h0.1l0.1,0.1c0,0,0.1,0.1,0.1,0.1l0.1,0h0h0l0,0
			l0.1-0.1l0.1,0.2l0.1,0.1h0.1l0.1,0h0l0.3,0h0v0l0.1,0.1l0,0l0,0v0l0.1,0.1v0l0.1,0.1l0.1,0l0.1,0V283l-0.1-0.1h0v0l0-0.2l0.1-0.1
			l0,0h0l0.1,0h0.1l0,0l-0.1-0.1l-0.2-0.1l-0.1-0.1l0,0l0,0l0,0l0.1-0.1l0,0l0.1,0l0.4,0l0,0h0l0.1,0l0.1-0.1l0-0.2l-0.1-0.1
			c-0.1-0.1-0.2-0.2-0.1-0.5l-0.1-0.1l0,0h0v0v0l0-0.2l0.2-0.7c-0.1-0.2-0.1-0.4-0.1-0.4l0-0.2l0-0.2v0l0,0l0,0l0.1-0.1v-0.1
			c0,0,0-0.1-0.1-0.1l-0.1-0.1h0v0l0-0.2v0l0,0l0,0v0l0.2-0.2v-0.1l-0.1-0.1v0l0,0l0.1-0.1v0h0l0.1-0.1l0-0.1h-0.1l-0.1,0l0,0.2l0,0
			l-0.2-0.1l-0.1,0l0,0.2l-0.2,0.1l-0.2,0.1l-0.1,0.1l0,0v0h0l-0.1,0.1l0,0.2v0l-0.1,0.2h0l0,0.1v0l0,0l0,0l-0.1,0.1h0v0l0,0h0
			l-0.2,0l0,0v0l0,0l0,0l-0.3-0.1l0,0L-443.8,279.1z"/>
		<path id="XMLID_70_" class="st0" d="M-440.4,277.2L-440.4,277.2l0-0.2l-0.1-0.1l-0.1,0.1v0l0,0l0,0l-0.1,0.1l0,0l0,0h0l-0.2,0.1h0
			l-0.2,0l-0.1,0l0,0.1l0,0l0,0l-0.1,0.1l0,0h0l-0.1,0l0,0v0.1l0,0l-0.1,0.1l0,0v0h0l-0.1,0.1h0l0,0l-0.1,0l-0.1,0.1l0,0.1v0l0,0
			l-0.1,0.1l-0.1,0.1l0,0.1v0v0v0.1l0,0v0l-0.1,0.1v0l-0.1,0.1l0,0.1l0.1,0.1v0l0,0c0,0.1,0.1,0.1,0.1,0.2v0.2h0l0,0l-0.1,0.1l0,0.2
			l0,0.2c0,0.1,0,0.2,0.1,0.4v0v0l-0.2,0.7l0,0.1l0.1,0.1l0.2-0.2l0,0h0l0.6-0.2l0.1-0.1l0,0l0,0h0l0.3,0c0,0,0.1,0,0.3-0.1v-0.2
			l0,0h0l0.1-0.1l0-0.1v0v0v0l0,0c0,0,0-0.1,0-0.1c0,0,0-0.1,0-0.2l0-0.1l0,0l0-0.1l-0.1-0.1c-0.1,0-0.1-0.1,0-0.1
			c0,0,0-0.1,0.1-0.1l0-0.1l0,0l0,0l0.1-0.2l0-0.1l0.1-0.2l-0.1-0.1l-0.2-0.1h0v0l0,0l0-0.1v0v0l0-0.2l0,0v0l0.1-0.1
			c0-0.1,0-0.1,0-0.1c0,0,0,0,0.1,0l0.1,0l0-0.1l0-0.2l0-0.1l-0.1,0h0l0,0l-0.1-0.1l0,0v0l0,0l0-0.2v0v0L-440.4,277.2z"/>
		<path id="XMLID_68_" class="st0" d="M-440,285L-440,285L-440,285L-440,285l-0.1-0.1l0,0v0l0-0.2c0,0,0,0-0.1-0.1h0l-0.1,0.1h0l0,0
			l-0.2,0.1l0-0.1v0l0-0.1l0-0.1l0,0l0,0.1h0v0l-0.2,0.2l0,0h0h0h0l-0.1,0l0,0l-0.1-0.1l-0.1,0l0,0l0,0l-0.1-0.1l-0.2-0.1l0,0h0
			l-0.2-0.1v0l-0.1-0.1l-0.2,0l-0.1,0l0.1,0.3h0l-0.2,0h-0.1h0l0,0l-0.1-0.1l-0.1,0.1l-0.1,0.2l-0.1,0.3l0,0.3l0.1,0.2c0,0,0,0,0,0
			l0,0c0,0-0.1,0.1,0,0.1l0.1,0.3l0,0c-0.1,0.1-0.2,0.1-0.2,0.2l0,0.1l0.1-0.1l0,0h0c0.1,0,0.1,0,0.1,0.1l0,0.2l0,0l0,0
			c0,0,0,0,0,0.1l0,0.2c0,0.1,0,0.1,0.1,0.1l0.2,0.2l0.1-0.1l0.1,0h0l0,0l0.1,0c0,0,0,0,0.1,0l0.1-0.1l0-0.1c0,0,0,0,0.1-0.1h0.2
			c0,0,0.1,0,0.1,0c0-0.1,0-0.1,0.1-0.1c0,0,0.1,0,0.1,0c0.1,0,0.1,0.1,0.1,0.1l0,0.1l0,0c0,0,0.1,0.1,0.1,0.1l0,0.1
			c0,0.1,0,0.1-0.1,0.1v0l-0.1,0.2l0,0l0.2,0l0,0l0,0c0,0.1,0,0.1,0,0.2c0.1,0,0.1,0.1,0.1,0l0.1,0l0.1,0h0.1l0.1-0.1v-0.1
			c0,0,0-0.1,0-0.1c0,0,0.1,0,0.2,0l0.2,0.1c0.1,0,0.1,0.1,0.1,0.1v0c0,0,0-0.1,0-0.2l-0.1-0.1v0h0l0,0c0.1-0.1,0.2-0.2,0.3-0.1
			l0.3,0.1l0.1-0.1h0v0v0l0,0l0,0l0,0c0.1-0.1,0.1-0.3,0.1-0.3c0-0.1-0.1-0.1-0.1-0.1h0l0-0.1h0c0.1,0,0.1,0,0.1-0.1l0,0l-0.1-0.1
			l0,0v0l-0.1-0.2c0-0.1,0-0.2,0-0.3V286l-0.1,0.1l-0.1,0.1l0-0.3l0,0v0h0c0.2-0.2,0.3-0.4,0.3-0.4l-0.1-0.2c0-0.1,0-0.2,0-0.2
			L-440,285L-440,285z"/>
		<path id="XMLID_66_" class="st0" d="M-442.6,282.2L-442.6,282.2L-442.6,282.2l0.2,0.2l0,0v0h0l0.1,0.1l0,0l-0.1,0.1l0,0l0,0h-0.1
			l-0.1,0l-0.1,0.1l0,0.1v0l0,0.1l0.1,0.1v0v0.2l0.1,0l0.1,0h0l0,0l0,0l0,0l0.1,0.1v0l0,0l0.1,0.1v0l0,0v0.1c0,0.1,0,0.1,0,0.1
			c0,0.1-0.1,0.1-0.2,0.1l-0.2,0.1h0l-0.5,0l0,0.1l0.1,0.1v0v0l0,0.2l0.2,0.3h0l0,0v0l0.1,0.2l0,0v0l0.1-0.2l0,0l0,0l0,0l0.1-0.2
			l0,0l0.2-0.1h0l0.1,0.1l0.2,0l-0.1-0.3l0,0l0.1,0l0.1,0h0v0l0.3,0.1l0.2,0.1h0l0,0h0l0.1,0.1l0.1,0v0l0,0l0,0l0,0l0.1,0.1l0,0
			l0.1-0.1v0l0.1-0.1l0.1-0.1l0.1,0.1v0v0l0,0.1v0l0,0.1l0,0l0.1,0l0.1-0.1h0.1v0h0l0.1,0c0,0,0.1,0.1,0,0.1l0,0.2l0,0.1l0,0
			c0.2-0.2,0.3-0.3,0.4-0.3h0.2l0-0.1l0.2-0.1h0l0.2,0l0.2-0.1v0h0.1l0-0.1l0,0l0,0l-0.3-0.6v0l0,0l0.1-0.2l0,0l-0.2,0h0l0,0v0
			l-0.1-0.1l0,0l0,0l0,0l-0.1-0.1c-0.1,0.1-0.1,0.1-0.2,0.1c-0.1,0-0.1,0-0.2-0.2l-0.1-0.1c0,0-0.1,0-0.1,0c-0.1,0-0.2,0.1-0.2,0
			c0,0-0.1-0.1,0-0.2c0-0.1,0-0.1,0-0.1l-0.9-0.1c-0.1,0-0.2-0.1-0.2-0.1l-0.1,0c-0.1,0-0.2-0.1-0.3-0.3l-0.1,0.1l-0.1,0l-0.4,0l0,0
			l0,0L-442.6,282.2z"/>
		<path id="XMLID_64_" class="st0" d="M-437.8,288.6c0.1,0,0.1,0,0.1-0.1v0l0,0h0l0.1,0v-0.1c0,0-0.1,0-0.1,0l-0.2-0.2v0l-0.1-0.3
			l-0.1-0.1c-0.2,0-0.3,0-0.4,0l0,0l0,0.1v0v0h0l-0.1,0.1l0,0c-0.1-0.1-0.2-0.1-0.2-0.1c-0.3,0.1-0.4,0.2-0.4,0.2c0,0-0.1,0-0.1,0.1
			l0,0l0,0c-0.1-0.1-0.1-0.1-0.1-0.2c0,0,0.1-0.1,0.1-0.2c0.1-0.1,0.2-0.2,0.2-0.2l0,0c0,0-0.1,0-0.2,0.1c-0.1,0.1-0.1,0.1-0.1,0.1
			c0,0,0,0,0-0.1l0,0l-0.1-0.1l-0.1,0.1l0,0l0,0h0c-0.1-0.1-0.2-0.1-0.3-0.1c-0.1,0-0.1,0-0.2,0.1l0.1,0.1c0,0.1,0.1,0.2,0,0.2
			c0,0,0,0-0.1,0c0,0-0.1,0-0.2-0.1c-0.1,0-0.1-0.1-0.2-0.1l-0.1,0v0l0,0l0,0v0.2l-0.1,0.1v0.1l0.1,0.1l0,0l-0.1,0.1l-0.1,0.1v0
			l-0.1,0.1l-0.2,0.4l0,0.2l0,0l-0.4,0.2l0,0l0.1,0.1v0v0l0,0.2l-0.2,0l0,0.2h-0.2l0,0.1l0,0l-0.1,0.1l0,0.5l0,0.1l0,0v0.1l0.1,0.1
			l0,0v0.1l0.2,0l0,0v0h0v0l0.1-0.1l-0.1-0.1l0,0l-0.1-0.1l0,0l0,0v-0.1h0.1l0-0.1l-0.1-0.1h0.3l0.5-0.2l0.1-0.1l0,0l0.1,0h0l0,0
			l0,0.1l0.1,0l0-0.1h0.2l0.2,0l0.1-0.1l0,0v0l0,0l0.2-0.1l0-0.3l0.2,0.2l0.1,0l0,0l0-0.6v0v0l0.1,0h0l0,0l0,0l0.2,0.4l0.2,0l0,0
			l0-0.1l-0.1-0.1l0,0l0.2-0.1l0,0l0,0l0.1,0.1l0.1,0v-0.1l0,0h0.1c0.1,0,0.2,0.1,0.2,0.1l0,0l0.1-0.2c0,0,0.1-0.1,0.2,0l0,0v0l0,0
			c0,0,0,0,0,0c0,0,0.2-0.1,0.4-0.3C-438,288.7-437.9,288.6-437.8,288.6z"/>
		<path id="XMLID_62_" class="st0" d="M-437.8,284.3L-437.8,284.3l-0.2-0.1l-0.1,0c-0.1,0.1-0.1,0.2-0.2,0.2c0,0-0.1,0-0.1,0
			c0,0,0-0.1,0-0.2l-0.2,0.2l0,0h0h-0.2l-0.2,0.1v0l-0.2,0l-0.1,0.1l-0.1,0.1l0,0h-0.2c0,0-0.1,0.1-0.3,0.2c0.1,0,0.1,0.1,0.1,0.1
			l0,0v0l0.1,0.4l0,0l0,0v0h0l0,0h0l-0.3,0.4l0,0.1c0,0,0.1,0,0.1,0c0,0,0.1,0.1,0,0.2c0,0.1,0,0.3,0.1,0.4l0.1,0.1
			c0,0,0.1,0.1,0,0.1l-0.1,0.1l0.1,0.1c0,0.1,0,0.2-0.1,0.4l0.1,0.2l0,0l0.1,0c0.1-0.1,0.2-0.1,0.2-0.1c0,0,0.1,0.1,0.1,0.1
			c0,0.1-0.1,0.1-0.2,0.3l-0.1,0.1l0.1,0.1c0.1-0.1,0.1-0.1,0.2-0.1c0,0,0.2,0,0.4-0.2c0.1,0,0.2,0,0.3,0.1l0,0l0-0.1l0,0
			c0,0,0,0,0-0.1l0-0.1c0,0,0-0.1,0-0.1c0,0,0.1,0,0.1-0.1l0.1-0.1l0-0.1v0h0v0c0,0,0-0.1,0-0.1c0-0.1,0-0.1,0.1-0.1l0.1-0.1l0,0
			l0,0l0.1,0v-0.1c0,0,0-0.1,0.1-0.2l0,0l0,0l-0.1-0.1c0-0.1,0-0.1,0-0.2v0l0.2-0.2l0-0.1c0,0-0.1-0.1,0-0.2c0-0.2,0.1-0.3,0.3-0.3
			l0,0h0l0.1,0.1h0.1l0.1-0.1l0,0l0,0l0,0l0.1-0.1l0-0.1v0l0,0l0,0l0,0l0,0l-0.1-0.1c-0.1-0.1-0.1-0.2-0.2-0.3c0-0.1,0-0.1,0-0.2
			l-0.1-0.1L-437.8,284.3z"/>
		<path id="XMLID_53_" class="st0" d="M-437.2,285.3L-437.2,285.3l-0.1,0.1l-0.1,0.1h0v0h-0.2l0,0l-0.1-0.1c-0.1,0-0.2,0.1-0.2,0.2
			l0,0.1l0.1-0.1l-0.1,0.2v0v0l-0.2,0.2c0,0-0.1,0.1,0,0.1l0,0.1c0.1,0,0.1,0.1,0.1,0.1c0,0,0,0,0,0.1l-0.2,0.1c0,0,0,0.1,0,0.2v0
			l0,0l-0.1,0c0,0,0,0.1-0.1,0.1l-0.1,0.1v0c0,0,0,0.1,0,0.1c0,0.1,0,0.1,0,0.1l-0.1,0.1l0,0l0,0v0l0.1,0.2h0c0.1,0,0.3,0,0.4,0h0v0
			l0.2,0.2v0h0l0.1,0.3l0.2,0.2l0.1,0l0-0.2l0.2,0.2l0,0l0.1-0.3l0-0.2l0,0h0l0.1,0l0-0.1v0v0h0l0.2,0c0.1-0.1,0.1-0.2,0.1-0.2
			l0-0.3l0.2,0.1l0-0.1l-0.1-0.1l0,0l0.1-0.1l0,0h0l0.1,0.1v0l-0.1-0.1l0,0l0,0l0-0.1l-0.1-0.1l0,0l0,0l0.2-0.1l0-0.1
			c-0.2-0.1-0.3-0.2-0.2-0.2c0,0,0,0,0.1,0l0.2,0l0-0.1v0l0.1-0.1l0-0.1c0,0-0.1,0-0.1-0.1l0,0v0l0,0l0,0l0,0l0,0
			c0,0-0.1,0.1-0.1,0.1c-0.1,0-0.1,0-0.2-0.1v0h0l-0.1-0.1l0,0c0,0,0,0.1-0.1,0.1c-0.1,0-0.2,0.1-0.3,0c-0.1,0-0.1-0.1-0.1-0.1
			l0-0.1c0-0.1-0.1-0.2-0.1-0.2c0,0-0.1,0-0.1,0V285.3L-437.2,285.3z"/>
		<path id="XMLID_51_" class="st0" d="M-436,283.2c-0.1,0-0.1,0.1-0.2,0.1c0,0-0.1,0-0.2-0.1l-0.2,0c-0.1,0-0.1,0.1-0.2,0.2l0.1,0.2
			l-0.2,0.1h0l-0.1,0c0.1,0.1,0.1,0.2,0.1,0.2l0,0.1c0,0.1-0.1,0.1-0.1,0.2l-0.3,0.2l0.1,0l0,0c-0.1,0.1-0.1,0.1,0,0.2l0.2,0.3h0v0
			l0.1,0.1v0l0,0l0,0v0v0l0,0c0,0,0.1,0,0.1,0c0.1,0,0.1,0.1,0.1,0.3l0,0.1c0,0,0,0.1,0.1,0.1c0.1,0,0.1,0,0.2,0c0,0,0.1,0,0.1-0.1
			l0,0v0l0.1-0.1l0,0l0.1,0.2c0,0,0.1,0,0.1,0l0,0l0,0l0-0.1l0.1,0.1h0h0l0,0l0.1,0.1l0-0.1l0-0.2l0,0l0,0l0.1-0.1c0,0,0,0,0-0.1
			l0,0l0,0l0,0l0,0l0.2-0.3l0,0l0,0l0,0v0l0,0.1h0l0.2-0.2l0-0.1h0l-0.1,0l0.1-0.3l-0.1,0l0,0h0v0l0,0c0,0,0-0.1,0-0.1l0.2,0h0.1
			c0,0,0-0.1-0.1-0.2l-0.2-0.1l0.2-0.2v0l-0.1,0h0v0l0,0l0,0c0-0.1-0.1-0.1-0.1-0.2l-0.3,0l-0.1,0.1v0l0,0l-0.5-0.1l0.4-0.1
			c0,0,0.1-0.1,0.2-0.2l-0.2-0.1L-436,283.2z"/>
		<path id="XMLID_49_" class="st0" d="M-437.8,282L-437.8,282L-437.8,282c-0.1-0.3-0.2-0.4-0.2-0.5l-0.3-0.1c-0.1,0-0.2-0.1-0.3-0.1
			c-0.1,0-0.2-0.1-0.3-0.3h0l0,0c0,0.1,0.1,0.2,0.2,0.3l0,0l0,0l-0.1,0.2c0,0.1-0.1,0.1-0.1,0.1c0,0-0.1-0.1-0.2-0.2l-0.1,0
			c0,0,0,0.1,0.1,0.2v0v0v0v0l0,0.1l-0.1,0.1l0,0l0,0c0,0,0,0.1,0,0.1c0,0.1,0,0.2,0,0.2c0,0,0,0,0,0h0l0,0l-0.1,0
			c0,0,0,0.1,0.1,0.1c0.1,0.1,0.1,0.2,0.2,0.3l0,0l0,0l0.1,0c0.1,0,0.2,0,0.2,0.1l0.1,0.1l0,0v0h0l0,0.2c0,0,0,0.1,0,0.1
			c0,0,0,0.1-0.1,0.1c-0.1,0-0.1,0-0.1,0.1l0,0l0,0v0l-0.1,0.1l0.1,0.1l0.2,0h0l0,0l0.1,0.1l-0.1,0.2l0.3,0.6l0,0l0,0.1l0,0h0
			l0.5-0.3l-0.1,0.1c-0.1,0.1-0.1,0.2-0.1,0.3c0.1,0,0.2-0.1,0.2-0.2l0,0h0l0.1-0.1l0,0l0.2,0.2l0.2,0l0,0l0.1,0.1l0.3-0.2
			c0,0,0-0.1,0.1-0.1l0-0.1c0,0,0-0.1-0.1-0.2l-0.1-0.1l0.3,0.1l0.1-0.1l-0.1-0.2l0,0l0.2-0.2l-0.1-0.1c-0.1-0.1-0.1-0.1-0.1-0.1
			l0,0l-0.1,0.1l0,0h0l-0.1,0l0-0.1c-0.1,0-0.1,0-0.1-0.1l-0.1-0.1c-0.1,0-0.1-0.1-0.1-0.1c0,0,0-0.1,0-0.2c0.1-0.1,0.1-0.2,0.1-0.3
			v-0.1l0.1,0l0.2,0c0,0,0-0.1,0.1-0.2l-0.1,0c-0.1,0.1-0.2,0.1-0.3,0.2C-437.5,282.1-437.6,282.1-437.8,282L-437.8,282L-437.8,282z
			"/>
		<path id="XMLID_45_" class="st1" d="M-438.6,277.1L-438.6,277.1c-0.1,0-0.1,0-0.1,0.1l0,0l0,0l0,0l-0.1,0.1l0,0l-0.1,0l0,0.1
			c0,0.1,0,0.1-0.1,0.2l0,0.1c0,0,0,0.1,0,0.2l0,0.2c0,0,0.1,0.1,0.1,0.1l0.2,0c0,0,0.1,0,0.2-0.1l0-0.1v0v0l0-0.1v0l0.1-0.1h0.1
			l0,0c0,0-0.1-0.1-0.1-0.2l-0.1-0.1c0-0.1-0.1-0.1-0.1-0.2C-438.5,277.1-438.5,277.1-438.6,277.1z"/>
		<path id="XMLID_43_" class="st0" d="M-439.2,276.8L-439.2,276.8L-439.2,276.8h-0.1l0,0v0h0l-0.2,0.1l0,0c0,0.1,0,0.1,0.1,0.2l0,0
			l0,0c0,0.1-0.1,0.1-0.2,0.2c0,0,0,0,0,0.1l0.1,0.1l0.1,0l0.1,0c0.1,0,0.1,0,0.2,0l0.1,0.1c0.1,0,0.1,0,0.1,0c0,0,0.1,0,0.1-0.1
			l0.1-0.1l0-0.1l0-0.2l0.1,0l0.1,0l0,0l0,0l-0.1-0.2l0-0.1c0,0,0.1-0.1,0.1-0.1h0l0-0.1l-0.2,0v0l-0.2-0.1c-0.1,0-0.1-0.1-0.2,0
			l0,0c0,0,0,0.1,0,0.1C-439.2,276.7-439.2,276.7-439.2,276.8z"/>
		<path id="XMLID_41_" class="st0" d="M-436.5,274.9l-0.1,0.1c0,0,0,0.1,0,0.1v0h-0.2h0l0,0l-0.1,0l-0.1,0.1l0,0l-0.1,0.1l-0.1,0.1
			l0,0l0,0l0,0l-0.2,0.2v0h0l-0.1,0.1l-0.1-0.1v0l0,0l0,0l-0.1-0.1l-0.1,0l0.1,0.3l0,0.2l-0.1,0.1l-0.2,0.2v0.1l0,0h0l0,0.1l0,0.1
			h0.1l0.2,0.1h0h0v0h0l0,0l0.1,0l0,0h0v0c0,0,0,0.1,0,0.1l0,0.1l0.2,0.1l0.1,0l0.1-0.1l0.2-0.3h0v0l0.1-0.1l0,0l0.1-0.1l0.1,0
			c0-0.1,0.1-0.1,0.1-0.1c0,0,0.1,0,0.1,0l0,0v0l0.1,0.2v0h0v0l0,0.1l0,0.2l0,0l0,0.1l0,0v0h0l-0.1,0.1l0,0.1l0,0.2h0l0.1,0l0.1-0.1
			l0,0l0,0l0.1,0.1v0v0.1h0l-0.1,0l0,0v0.1l0,0l0,0l0,0.1h0l0,0l-0.1,0l-0.1,0l0,0.1l0,0l0.2,0l0,0l0.1-0.2l0,0l0.5-0.6h0l0.1-0.1
			l0,0v0h0.1l0.1,0l0.1,0l0.1-0.1l0.1-0.3l0,0v0l0.5-0.5v0l0-0.3c0,0-0.1,0-0.1,0l0,0v0l-0.1,0c0,0-0.1,0-0.1-0.1l0,0v0l0,0v-0.4
			c0,0-0.1,0-0.1-0.1l-0.1-0.1l-0.1-0.1c0,0,0-0.1,0-0.1l0,0l-0.1-0.1l0,0.1l-0.1,0.1h0c-0.1,0-0.1,0-0.2,0c0,0-0.1-0.1-0.1-0.1v0h0
			l-0.1,0l-0.1-0.1l0,0l0,0l0,0.1l0,0l-0.1,0.2h0v0h0l-0.1,0.1l0,0h0l-0.2,0L-436.5,274.9z"/>
		<path id="XMLID_39_" class="st0" d="M-436.3,272.7l0-0.2l-0.1,0h0l-0.2,0.1l0,0l0,0v0.1l0,0l-0.1,0.1h0v0h0l-0.1,0.1h0v0l0,0
			c-0.1,0-0.1-0.1-0.2-0.1c0,0,0,0,0,0l-0.1,0l-0.1,0.1l0.2,0.1l0.1,0.1l0,0h0l0,0v0l0,0.1h0v0.2l0,0.1l0.1,0.2l0.1,0.1l0.1-0.1
			l0.1-0.1v0h0l0.1-0.1l0.1,0.1v0l0,0l0,0v0l0.1,0.2l0.1,0l0.1,0.2v0v0l0,0.2v0h0l0,0.1l0.1,0.1l0.1,0l0.1-0.1l0,0l0.1,0l0,0l0,0
			l0.1,0.1l0.1,0c0.1,0,0.1,0,0.1,0.1v0.1l0,0l0.1,0l0-0.1v0c0,0,0-0.1,0-0.1l0.1,0c0.1,0,0.1,0.1,0.1,0.1l0,0.1v0.1l0.1,0.1
			l0.1,0.1c0,0,0.1,0.1,0.1,0.1h0c0,0,0,0.1,0,0.1v0.3c0,0,0,0.1,0.1,0.1h0c0,0,0.1,0,0.1,0l0,0c0,0,0.1,0,0.1,0.1l0,0.2l0.2-0.3
			c0.1-0.2,0.1-0.3,0.2-0.3c0.1,0,0.2,0,0.3,0.1l0.5,0l0-0.1l-0.2-0.2c-0.1-0.1-0.1-0.1-0.1-0.1l0.2,0c0.2,0.1,0.3,0,0.4-0.3l0,0h0
			l0.2-0.2l0-0.3v0h0h0l0.1,0h0l0,0v0l0.3,0.3l0.1,0l0,0l-0.1-0.1l0,0l0,0l0.2-0.1l0-0.3l-0.1,0l0,0h0l-0.1-0.1c0,0-0.1,0-0.2-0.1
			c0,0-0.1,0-0.1-0.1v0c0,0,0,0,0,0.1c0,0-0.1,0-0.1,0h0l0,0h0l-0.1-0.1l-0.1,0.1c0,0-0.1,0.1-0.1,0.1l0,0.1c0,0,0,0,0,0.1
			c0,0-0.1,0-0.1,0.1l0,0c-0.1,0-0.1,0-0.1,0l0,0l-0.2-0.2c-0.1,0-0.1-0.1-0.2-0.1c0,0,0,0,0-0.1c0-0.1,0-0.1,0-0.1l0,0l0,0
			c0,0,0,0,0,0.1l0,0l0,0l0,0l-0.1,0.2l-0.2,0l0,0l0,0v0c0,0,0-0.1,0-0.1l0-0.1l-0.1-0.1l0,0c0,0,0,0,0,0l-0.1,0c0,0-0.1,0-0.1,0
			c0,0,0,0,0-0.1l0,0l-0.1-0.1l-0.3,0c0,0,0,0.1,0,0.1c0,0,0,0-0.1,0c0,0-0.1,0-0.1,0v0h0c-0.1-0.1-0.1-0.1-0.1-0.2l-0.1-0.1
			l-0.1,0.1c-0.1,0-0.1,0-0.1,0l0,0l-0.1,0l-0.2,0.1c0,0-0.1,0-0.1,0h0c-0.1,0-0.1,0-0.1-0.1l-0.1-0.1L-436.3,272.7z"/>
		<path id="XMLID_37_" class="st0" d="M-431.8,271.3l-0.1-0.7l0,0h0c0.1-0.1,0.1-0.1,0.1-0.2l0,0c-0.1-0.1-0.1-0.2-0.1-0.4h-0.1
			c-0.1,0-0.1,0-0.2,0.1c-0.1,0-0.1,0.1-0.1,0.1c0,0.1-0.1,0.1-0.3,0.2l0,0.2v0l0,0l-0.1,0.1l0,0h0h0l-0.7,0.1h0h0v0l-0.2-0.2
			l0.1-0.1l-0.1-0.1l-0.1-0.1l0,0h0v0v0l0-0.2l-0.2,0l0,0l-0.2-0.1l-0.6-0.1l-0.5,0l0,0c0,0,0,0,0,0l-0.3-0.6c0-0.1-0.1-0.2-0.4-0.5
			c-0.2-0.3-0.3-0.4-0.4-0.4l-0.4-0.4l-0.1,0l-0.5,0h0l0,0c-0.1,0-0.1-0.1-0.2-0.1c-0.1,0-0.3,0-0.7,0.2l0,0l0,0.1h0v0h0v0l-0.1,0.1
			v0h0l0,0.1c0,0.1,0,0.1,0,0.2l0.1,0l0.1,0l0.1,0l0,0c0-0.1,0-0.1,0.1-0.1h0.1l0.3,0.1l0.1,0l-0.1,0.1v0.2c0,0,0.1,0.1,0.2,0.2
			c0.1,0.1,0.1,0.1,0.2,0.1l0,0l0,0l0.1-0.1l0.1-0.1v0l0,0l0.2,0l0.1-0.1l0.2-0.1l0.2,0.1v0l0,0l0.1,0.2l0.1,0.2v0l0,0.2l0.1,0.1v0
			l0,0.2v0.1c0,0.1,0.1,0.2,0.1,0.2l0,0.1l0,0v0l-0.1,0.1v0l0,0l0,0l-0.1,0.1l0,0.2l0,0.2l0,0l0,0l0,0l0,0l0,0.3l0,0
			c0,0-0.1,0-0.1,0h0l-0.1-0.1l-0.1,0l-0.1,0.1l-0.1,0.3v0l0,0l-0.1,0.1h0l-0.1,0l-0.1,0.2l0.1,0.1l0,0l0.1,0.2v0v0.1l0.2,0l0,0.1v0
			l0,0.2l0,0l0.1,0l0.1-0.1l0,0l0.1,0.2l0.1,0.1l0,0l0.1,0.1l0.1,0.1c0,0,0.1,0,0.1,0l0,0l0.1,0c0.1,0,0.1,0,0.2-0.1l0,0l0.1,0
			c0,0,0.1,0,0.1,0l0.1-0.1h0l0,0l0,0l0,0c0.1,0.1,0.1,0.1,0.1,0.2l0.1,0.1l0.1,0h0h0l0,0c0,0,0-0.1,0-0.1c0,0,0,0,0.1,0l0.3,0l0,0
			h0v0h0l0.1,0.2l0,0.1h0l0.1,0h0c0,0,0,0,0-0.1l0,0l0.2,0.2c0,0,0,0.1,0,0.1l0,0.1l0.1,0l0.1-0.1c0,0,0-0.1,0-0.1c0,0,0-0.1,0-0.1
			l0,0c0,0,0,0,0,0l0.1,0c0,0,0.1,0.1,0.1,0.2v0l0,0c0,0,0.1,0.1,0.1,0.1h0l0,0l0.2,0.2l0,0l0.1,0l0,0c0,0,0-0.1,0-0.1
			c0-0.1,0-0.1,0.1-0.2l0.1-0.1l0.1,0.1h0l0-0.2v0l0,0l0.1,0c0,0,0,0,0,0.1c0,0,0,0.1,0,0.1l0,0c0.1,0,0.1,0.1,0.2,0.1h0l0,0
			l0.1,0.1l0.1,0l-0.1-0.5c-0.1,0-0.1-0.1-0.2-0.2c-0.1-0.1,0-0.2,0.1-0.4c0.1-0.1,0.1-0.1,0.2-0.2l0,0l0,0h0.1l0,0l0.1,0h0.2
			c0.1,0,0.1-0.1,0.2-0.3C-431.8,271.9-431.8,271.6-431.8,271.3z"/>
		<path id="XMLID_35_" class="st0" d="M-436,278.6L-436,278.6C-436,278.6-436,278.7-436,278.6l-0.4,0c-0.2,0-0.3-0.1-0.4-0.1
			l-0.4,0.4l0,0.2v0l0,0c-0.3,0-0.5,0-0.5-0.1l0-0.5l-0.4,0l-0.2,0.3l0-0.1c0-0.1,0-0.2-0.1-0.2l-0.2,0.1l-0.1,0.1l0,0h0l-0.1,0.1
			c-0.2,0.1-0.3,0.3-0.4,0.4l-0.4,0.5l0.1,0.2v0l0,0l0,0c0,0,0,0.1,0,0.2c0.1,0.1,0.1,0.2,0.1,0.3v0l-0.3,0.2v0.1l0.1,0.1
			c0,0,0,0,0,0v0c0,0,0.1,0.1,0.2,0.1l0.3,0.1l0.1-0.1l0.1-0.1l0.1-0.2l0.2,0.1l0,0v0l0,0v0c0,0.1,0,0.1,0.1,0.2l0.2,0
			c0.1,0,0.1,0,0.2-0.1c0,0,0.1,0,0.1,0c0.1,0,0.2,0,0.2,0.1l0.1-0.1l0,0h0c0,0,0.1-0.1,0.1-0.1c0-0.1,0.1-0.1,0.1-0.1l0.1-0.1l0,0
			l0,0h0l0.1,0l0,0l0,0l0.1-0.4v0l0.1,0c0.1-0.1,0.2-0.1,0.2-0.2l0-0.1c0-0.1,0-0.1,0-0.1c0,0,0,0,0.1,0c0.1,0,0.1,0,0.2,0l0-0.1v0
			l0,0l0.1-0.1l0-0.1h-0.1l0,0l0,0v0l0,0h0h0c0.1,0,0.1,0,0.2-0.1l0.5-0.3h0l0.1,0.1l0.1,0l0-0.2v0l0,0l0,0l0.1-0.1l0,0l-0.1,0v0h0
			l-0.1,0L-436,278.6L-436,278.6L-436,278.6L-436,278.6L-436,278.6L-436,278.6z"/>
		<path id="XMLID_33_" class="st0" d="M-435.4,282.9L-435.4,282.9L-435.4,282.9L-435.4,282.9L-435.4,282.9l-0.1-0.2
			c-0.1-0.1-0.2-0.1-0.2-0.1l-0.1,0v0.2c0,0.1,0,0.1-0.1,0.2l0,0l0.1,0.1h0l0,0.1l0.1,0c0.1,0,0.1-0.1,0.1,0l0.2,0l0-0.1
			C-435.4,283-435.4,283-435.4,282.9z"/>
		<path id="XMLID_31_" class="st0" d="M-436.4,281.3c-0.1-0.1-0.1-0.2-0.2-0.4c-0.2,0-0.3,0-0.4-0.1c0-0.1-0.1-0.1-0.3-0.1l0,0
			l0-0.1l0,0l0,0c-0.1,0-0.1,0.1-0.2,0.1c0,0.1-0.1,0.1-0.1,0.1c0,0.1-0.1,0.2-0.1,0.2c0,0,0,0-0.1,0l-0.1-0.1c0,0-0.1,0-0.1,0
			l-0.1,0c-0.1,0.1-0.1,0.1-0.2,0.1l-0.3,0c-0.1,0-0.1-0.1-0.1-0.2l-0.1,0l-0.1,0.1l0,0v0l0,0l0,0l0.1,0h0l0,0v0
			c0.1,0.2,0.2,0.3,0.3,0.3c0,0,0.1,0,0.3,0.1l0.3,0.1c0.1,0,0.2,0.2,0.2,0.5c0.1,0.1,0.2,0.1,0.2,0.1c0.1,0,0.1-0.1,0.3-0.2l0,0
			l0,0l0,0l0.1,0h0v0l0,0c0,0.2-0.1,0.3-0.1,0.3l-0.2,0v0c0,0.1-0.1,0.2-0.1,0.3c0,0,0,0.1,0,0.1l0.2,0.1c0,0.1,0.1,0.1,0.1,0.1h0
			l0,0.1l0.1,0l0,0c0,0,0.1,0,0.1,0c0.1,0,0.1,0,0.2,0.1l0,0l0.1,0.1l0,0c0,0,0.1,0,0.2,0l0.2,0l0.2-0.1l0.1,0l0.1,0l0-0.1
			c0,0,0-0.1,0-0.1c0,0,0.1-0.1,0.1-0.1v-0.1c0,0,0-0.1,0-0.1c0,0,0.1,0,0.1-0.1c0.1,0,0.2,0,0.4,0.1l-0.1-0.1l-0.1-0.1l0-0.1
			l-0.1,0h0v0l0,0l0,0l-0.3-0.2l-0.2,0v0l0-0.2C-436.3,281.6-436.3,281.4-436.4,281.3z"/>
		<path id="XMLID_29_" class="st0" d="M-437.7,276.8L-437.7,276.8L-437.7,276.8L-437.7,276.8l-0.1-0.1l-0.2-0.1h-0.1l0,0l-0.1-0.2
			l0,0l0.1-0.1v-0.1l0,0l0-0.1l0,0l-0.1,0l0,0l-0.2,0h0l-0.1-0.1v0l0-0.1l0,0l0.1-0.2v-0.1l0,0l-0.1,0.1l0,0l0,0l0,0l0,0l-0.1-0.1
			l0,0v0l0-0.2l-0.1-0.1l-0.1,0l-0.1,0.1l0,0l0,0l-0.2,0l0,0.2v0.2l0,0l-0.1,0.1v0l0,0h0l-0.1,0l-0.1,0.1l0,0l0,0h0l0,0l-0.2-0.1
			l0,0.1v0l-0.1,0.1c0,0,0,0-0.1,0.1l-0.1,0l-0.1-0.1l0,0l0,0v0l0-0.2l0-0.1l0,0l-0.1,0.1l0,0l0,0l-0.1,0.1l-0.1,0.2v0l0,0v0h0
			l-0.1,0.1c0,0,0,0.1-0.1,0.1l0,0.2l0.2,0.2l0,0l0.1,0.2v0l0,0h0l-0.1,0.1l0,0l-0.1,0l0,0.1l0.1,0.1l0.2,0l0,0.1l0,0l0,0v0v0l0,0.2
			l0,0v0l-0.1,0.1v0h0l-0.2,0v0.1l-0.1,0.2l0,0.2l0,0.1l0.2,0.1l0,0l0.1,0.2v0l0,0l0,0l-0.1,0.3l0,0.1l0,0l-0.1,0.2l0,0.1l0,0v0
			c0,0-0.1,0.1-0.1,0.1c0,0,0,0,0,0l0,0l0.1,0.1l0,0l0,0l0,0.1l0,0l0,0l0,0v0v0l0,0v0l0,0l0,0l0,0l0.1,0l0.3,0.1
			c0.1,0,0.2,0,0.3-0.1c0.1,0,0.2,0,0.3,0l0-0.1l-0.1-0.2l0,0h0l0.4-0.6l0.4-0.4h0l0.1-0.1l0.1-0.1v0c0.1,0,0.1-0.1,0.2-0.1l0,0
			l-0.1-0.1v0h0l-0.1-0.1l0,0v0l0,0l-0.1,0l-0.2-0.1c-0.1,0-0.1-0.1-0.1-0.1c0-0.1-0.1-0.2-0.1-0.4c0,0-0.1,0-0.1,0l-0.2,0l-0.1-0.1
			l-0.1,0h-0.1c0,0-0.1,0-0.1,0c0,0-0.1-0.1-0.1-0.1c0-0.1,0-0.1,0.1-0.1c0.1,0,0.1-0.1,0.2-0.2c-0.1-0.1-0.1-0.1-0.1-0.2l0,0
			c0,0,0.1-0.1,0.2-0.1c0,0,0-0.1,0-0.1l0.1,0l0,0c-0.1,0-0.1-0.1-0.1-0.2l0.1,0c0.1,0,0.1,0,0.2,0l0.2,0.1h0.2l0.1,0l0,0.1
			c0,0,0,0.1-0.1,0.1c0,0-0.1,0-0.1,0.1l0.1,0.2c0-0.1,0.1-0.1,0.1-0.1c0,0,0.1,0,0.1,0c0,0,0,0.1,0.1,0.2c0,0.1,0,0.1,0.1,0.2
			l0.1,0.1c0.1,0.1,0.1,0.2,0.2,0.3l0.3,0l0.1-0.1l0.1-0.1l0.1-0.1v0v0l0-0.1v0l0,0h0l0.1-0.1l0,0l0,0l-0.2-0.1h0v0L-437.7,276.8
			L-437.7,276.8z"/>
		<path id="XMLID_27_" class="st0" d="M-441.4,281L-441.4,281l-0.6,0.2l-0.2,0.2c0,0.2,0,0.4,0.1,0.4l0.2,0.1h0v0l0,0.3
			c0.1,0.2,0.2,0.3,0.3,0.3l0.2,0l0,0v0c0,0,0.1,0.1,0.2,0.1l0.4,0c0.3,0,0.5,0,0.5,0.1c0,0,0,0.1,0,0.2c0,0.1,0,0.1,0,0.1l0.2,0
			c0.1,0,0.2,0,0.2,0l0.1,0.1c0.1,0.1,0.1,0.2,0.2,0.1c0,0,0.1-0.1,0.1-0.1l0,0l0.1,0.1l0.1-0.1c0-0.1,0.1-0.2,0.2-0.2l0,0l0,0l0,0
			l0,0l0-0.2c-0.1-0.1-0.1-0.1-0.2-0.1c-0.1,0-0.1,0-0.2,0c0,0,0,0,0-0.1c-0.1-0.1-0.1-0.2-0.2-0.2c-0.1-0.1-0.1-0.1-0.1-0.2l0,0
			l0.2,0l0-0.1c0-0.1,0-0.1,0-0.2c0,0,0.1,0,0.1-0.1l0.1,0v0c-0.1-0.1-0.1-0.2-0.1-0.3l0,0c0,0,0.1,0,0.2,0l0,0l0,0v0
			c0.1,0.1,0.1,0.2,0.1,0.2l0.1-0.2c-0.1-0.2-0.2-0.3-0.2-0.3l-0.1,0.1l0,0l-0.3-0.1h0v0c-0.1-0.1-0.2-0.1-0.2-0.2l-0.2-0.1v-0.2
			l0.3-0.2c0-0.1,0-0.2-0.1-0.2l-0.1-0.1l-0.2,0c-0.1,0-0.2,0.1-0.3,0.1l-0.2-0.1V280l0,0l-0.1,0l0,0l0,0v0l0,0l0,0l0,0v0v0l0,0
			l0,0.2l0,0.1c0,0,0,0.1,0,0.1c0,0.1,0,0.1,0,0.2l0,0.1l0,0l0,0l-0.1,0.1v0.2l0,0c-0.2,0.1-0.3,0.1-0.3,0.1l-0.3,0L-441.4,281
			L-441.4,281z"/>
		<path id="XMLID_21_" class="st0" d="M-435,287c-0.2,0.2-0.4,0.4-0.5,0.6c-0.1,0.2-0.2,0.3-0.2,0.4l0.1,0.4v0l0,0l0,0.3
			c0,0.1,0,0.1,0,0.2l0.3,0.2l0,0h0l0,0l0,0c0,0.1,0.1,0.1,0.1,0.2c0,0,0.1,0.1,0.1,0.1l0-0.5v0l0.2-0.5l0.1-0.6v0l0,0l0.1-0.2
			l-0.1-0.1v0h0l0-0.2l0,0l0,0l0,0l0-0.1L-435,287z"/>
		<path id="XMLID_15_" class="st0" d="M-442.2,291.3L-442.2,291.3L-442.2,291.3L-442.2,291.3l-0.3,0.1l0,0l0.1,0.1c0,0,0,0,0,0
			l-0.1,0.1l-0.2,0.2c-0.1,0.1-0.1,0.2,0.1,0.5l0.2,0h0v0l0.2,0.1l0.2,0c0.1,0,0.2-0.1,0.3-0.3h0l0,0l0.1,0l0-0.3v0l0.1-0.2v0h0
			l0.1-0.1c0-0.1,0-0.2,0-0.2c0-0.1-0.1-0.1-0.1-0.1l0,0.1l-0.2,0l-0.1,0.1h0l0,0H-442.2z"/>
	</g>
	<path id="XMLID_5_" class="st2" d="M-438.4,283.6c0-0.5,0.4-0.9,0.9-0.9c0.5,0,0.9,0.4,0.9,0.9c0,0.5-0.4,0.9-0.9,0.9
		C-438.1,284.5-438.4,284.1-438.4,283.6L-438.4,283.6z M-438.4,283.6"/>
	<g id="XMLID_10_">
		<path id="XMLID_152_" class="st3" d="M-439.6,284.6c0,0.6,0.2,1.2,0.7,1.6c0.4,0.4,1,0.7,1.6,0.7c0.6,0,1.2-0.2,1.6-0.7
			c0.4-0.4,0.7-1,0.7-1.6c0-0.6-0.2-1.2-0.7-1.6c-0.4-0.4-1-0.7-1.6-0.7c-0.6,0-1.2,0.2-1.6,0.7C-439.4,283.4-439.6,284-439.6,284.6
			L-439.6,284.6z M-439.6,284.6"/>
		<path id="XMLID_149_" class="st4" d="M-443.1,277.7c0.7,0,1.2-0.5,1.2-1.2c0-0.7-0.5-1.2-1.2-1.2c-0.7,0-1.2,0.5-1.2,1.2
			C-444.4,277.1-443.8,277.7-443.1,277.7L-443.1,277.7z M-443.1,277.7"/>
		<path id="XMLID_146_" class="st5" d="M-435.6,275.1c0.6,0,1.1-0.5,1.1-1.1c0-0.6-0.5-1.1-1.1-1.1c-0.6,0-1.1,0.5-1.1,1.1
			S-436.1,275.1-435.6,275.1L-435.6,275.1L-435.6,275.1z M-435.6,275.1"/>
		<path id="XMLID_140_" class="st4" d="M-440.8,283.9c0.5,0,0.9-0.4,0.9-0.9c0-0.5-0.4-0.9-0.9-0.9c-0.5,0-0.9,0.4-0.9,0.9
			S-441.3,283.9-440.8,283.9L-440.8,283.9L-440.8,283.9z M-440.8,283.9"/>
		<path id="XMLID_136_" class="st5" d="M-437.8,280.4c0.4,0,0.7-0.3,0.7-0.7c0-0.4-0.3-0.7-0.7-0.7c-0.4,0-0.7,0.3-0.7,0.7
			C-438.5,280.1-438.2,280.4-437.8,280.4L-437.8,280.4z M-437.8,280.4"/>
		<path id="XMLID_135_" class="st5" d="M-457.7,283.5c0,1,0.8,1.7,1.7,1.7c1,0,1.7-0.8,1.7-1.7c0-1-0.8-1.7-1.7-1.7
			C-456.9,281.8-457.7,282.5-457.7,283.5"/>
		<path id="XMLID_132_" class="st3" d="M-447.5,282.1c1.1,0,1.9-0.9,1.9-1.9c0-1.1-0.9-1.9-1.9-1.9c-1.1,0-1.9,0.9-1.9,1.9
			C-449.5,281.2-448.6,282.1-447.5,282.1L-447.5,282.1z M-447.5,282.1"/>
		<path id="XMLID_129_" class="st5" d="M-448.4,288.5c0,0.7,0.6,1.2,1.2,1.2s1.2-0.6,1.2-1.2c0-0.7-0.6-1.2-1.2-1.2
			C-447.8,287.3-448.4,287.8-448.4,288.5L-448.4,288.5L-448.4,288.5z M-448.4,288.5"/>
		<path id="XMLID_126_" class="st4" d="M-444.1,285.7c0.8,0,1.4-0.6,1.4-1.4c0-0.8-0.6-1.4-1.4-1.4c-0.8,0-1.4,0.6-1.4,1.4
			C-445.5,285.1-444.9,285.7-444.1,285.7L-444.1,285.7z M-444.1,285.7"/>
		<path id="XMLID_123_" class="st4" d="M-451.4,275.7c0.5,0,1-0.4,1-1c0-0.5-0.4-1-1-1c-0.5,0-1,0.4-1,1
			C-452.4,275.3-451.9,275.7-451.4,275.7L-451.4,275.7z M-451.4,275.7"/>
		<path id="XMLID_120_" class="st5" d="M-456,277.1c0.5,0,0.9-0.4,0.9-0.9c0-0.5-0.4-0.9-0.9-0.9c-0.5,0-0.9,0.4-0.9,0.9
			C-456.8,276.7-456.4,277.1-456,277.1L-456,277.1z M-456,277.1"/>
		<path id="XMLID_117_" class="st4" d="M-451.8,283c0.3,0,0.6-0.3,0.6-0.6c0-0.3-0.3-0.6-0.6-0.6c-0.3,0-0.6,0.3-0.6,0.6
			C-452.4,282.7-452.1,283-451.8,283L-451.8,283L-451.8,283z M-451.8,283"/>
		<path id="XMLID_114_" class="st3" d="M-443.1,286.9c0.3,0,0.5-0.2,0.5-0.5c0-0.3-0.2-0.5-0.5-0.5s-0.5,0.2-0.5,0.5
			S-443.4,286.9-443.1,286.9L-443.1,286.9L-443.1,286.9z M-443.1,286.9"/>
		<path id="XMLID_111_" class="st6" d="M-439.4,275c0.3,0,0.5-0.2,0.5-0.5c0-0.3-0.2-0.5-0.5-0.5s-0.5,0.2-0.5,0.5
			S-439.6,275-439.4,275L-439.4,275L-439.4,275z M-439.4,275"/>
		<path id="XMLID_108_" class="st4" d="M-448.9,284c0.3,0,0.5-0.2,0.5-0.5c0-0.3-0.2-0.5-0.5-0.5c-0.3,0-0.5,0.2-0.5,0.5
			S-449.1,284-448.9,284L-448.9,284L-448.9,284z M-448.9,284"/>
		<path id="XMLID_101_" class="st3" d="M-451.8,279.7c0.3,0,0.5-0.2,0.5-0.5c0-0.3-0.2-0.5-0.5-0.5s-0.5,0.2-0.5,0.5
			S-452,279.7-451.8,279.7L-451.8,279.7L-451.8,279.7z M-451.8,279.7"/>
		<path id="XMLID_13_" class="st3" d="M-447.1,277.4c0.3,0,0.5-0.2,0.5-0.5c0-0.3-0.2-0.5-0.5-0.5c-0.3,0-0.5,0.2-0.5,0.5
			C-447.6,277.2-447.4,277.4-447.1,277.4L-447.1,277.4L-447.1,277.4z M-447.1,277.4"/>
	</g>
</g>
</svg>
